<svg width="171" height="182" viewBox="0 0 171 182" fill="none" xmlns="http://www.w3.org/2000/svg">
<path d="M111.348 113.945C111.129 113.945 111.033 113.895 110.139 112.663C110.077 112.579 110.032 112.517 110.015 112.5L109.712 112.129C108.632 110.818 107.512 109.463 106.337 108.22C103.485 105.205 99.9981 102.449 95.6672 99.794C95.566 99.7322 95.431 99.6647 95.2848 99.5859C94.7279 99.2991 94.0305 98.9391 93.8449 98.3767C93.8449 98.3598 93.8224 98.2979 93.8224 98.2811C93.7886 98.0898 93.6987 97.578 95.206 95.5194C95.2735 95.4294 95.4197 95.3619 95.5322 95.3619C96.2128 95.3619 100.662 98.3035 100.707 98.3317C105.656 101.656 110.162 105.942 113.727 110.728L113.868 110.914C114.206 111.352 114.29 111.549 113.902 111.999C113.857 112.05 113.806 112.106 113.75 112.179C113.57 112.399 113.311 112.573 113.081 112.725C112.985 112.792 112.889 112.854 112.811 112.916L111.568 113.878C111.528 113.912 111.478 113.934 111.427 113.945C111.405 113.951 111.371 113.957 111.348 113.957V113.945Z" fill="#00976C"></path>
<path d="M95.5313 95.711C96.0263 95.711 100.11 98.3545 100.509 98.6245C105.43 101.926 109.902 106.189 113.445 110.942C113.935 111.595 113.907 111.426 113.473 111.96C113.26 112.224 112.86 112.433 112.59 112.641C112.174 112.961 111.764 113.282 111.347 113.602C111.224 113.602 110.358 112.365 110.29 112.281C109.086 110.824 107.888 109.35 106.595 107.984C103.451 104.654 99.7441 101.887 95.8519 99.4963C95.3851 99.2094 94.3671 98.8213 94.1815 98.2701C94.1815 98.2589 94.1758 98.242 94.1702 98.2308C94.0746 97.6852 95.1714 96.1722 95.492 95.7391C95.4976 95.7279 95.5145 95.7222 95.537 95.7222M95.537 95.0192C95.2895 95.0192 95.0701 95.1317 94.9295 95.3229C93.5178 97.2465 93.4053 97.9327 93.4784 98.3545C93.4897 98.3995 93.5009 98.4445 93.5122 98.4951C93.7484 99.1925 94.5077 99.5863 95.1264 99.9069C95.2614 99.98 95.3907 100.042 95.4864 100.104C99.7891 102.742 103.259 105.475 106.083 108.473C107.253 109.71 108.366 111.066 109.446 112.371L109.75 112.736C109.75 112.736 109.801 112.809 109.857 112.883C110.695 114.041 110.909 114.311 111.353 114.311C111.404 114.311 111.46 114.306 111.511 114.294C111.612 114.272 111.707 114.227 111.786 114.165L112.214 113.833L113.029 113.203C113.102 113.147 113.192 113.085 113.282 113.029C113.53 112.86 113.817 112.669 114.025 112.41C114.081 112.343 114.126 112.286 114.171 112.241C114.688 111.645 114.57 111.257 114.154 110.717C114.115 110.667 114.07 110.605 114.019 110.537C110.431 105.717 105.897 101.403 100.914 98.0564C100.869 98.0283 96.3863 95.0248 95.5426 95.0248L95.537 95.0192Z" fill="black"></path>
<path d="M77.2227 110.881C89.182 110.881 98.877 101.186 98.877 89.2264C98.877 77.267 89.182 67.5721 77.2227 67.5721C65.2633 67.5721 55.5684 77.267 55.5684 89.2264C55.5684 101.186 65.2633 110.881 77.2227 110.881Z" fill="#FF0011" stroke="black" stroke-width="1.17818" stroke-miterlimit="10"></path>
<path d="M69.3496 76.2889C69.5802 81.2947 66.9704 89.4615 64.0682 91.6438C60.8622 94.0567 58.3931 92.1894 58.2075 88.1847C58.0556 84.9788 59.9904 80.4004 62.319 78.1956C64.1807 76.4296 65.8737 77.1889 65.9918 79.7536C66.0874 81.8066 64.1919 87.4592 62.6958 88.8709C61.5034 90.0015 59.788 89.2309 59.788 86.9811C59.788 84.1689 61.0816 81.6997 62.0377 80.7942C62.8027 80.0686 63.6745 80.3048 63.7251 81.3566C63.7645 82.1947 62.4371 86.7168 61.4359 86.5705C60.3223 86.4074 61.0816 84.3657 61.8184 83.1902" stroke="#FFD200" stroke-width="1.17818" stroke-miterlimit="10"></path>
</svg>