<svg width="171" height="182" viewBox="0 0 171 182" fill="none" xmlns="http://www.w3.org/2000/svg">
<path d="M23.9963 109.295C23.8069 109.295 23.6092 109.212 23.2138 108.257C23.0655 107.886 22.9008 107.524 22.7361 107.153C22.5055 106.634 22.2584 106.091 22.0689 105.555C21.6653 104.451 21.723 104.303 22.7031 103.768C23.9222 103.101 26.525 101.948 27.8758 101.379C40.1897 96.1983 53.4837 92.2611 67.3955 89.6748C82.4357 86.8826 94.9472 85.5812 106.759 85.5812C107.829 85.5812 108.9 85.5894 109.971 85.6141C111.577 85.6471 113.208 85.7047 114.806 85.7871L115.531 85.8283C116.725 85.8942 117.961 85.9601 119.188 85.9601C120.588 85.9601 121.799 85.8695 122.903 85.6883C123.224 85.6389 123.537 85.573 123.858 85.5153C124.69 85.3588 125.472 85.2105 126.247 85.2105C126.601 85.2105 126.93 85.2435 127.235 85.3094C129.879 85.8695 131.633 89.8313 131.329 92.7306C131.238 93.5708 130.892 94.9875 129.541 94.9875C128.932 94.9875 128.182 94.7157 127.326 94.1803C127.087 94.032 126.675 93.8591 126.156 93.6449C125.604 93.4143 124.459 92.9448 124.278 92.7142C123.24 91.281 116.297 90.8362 115.687 90.8362C84.7337 90.9927 58.5739 95.3829 35.6677 104.254C32.513 105.481 29.3913 106.939 26.3685 108.347L25.1989 108.891C24.7623 109.089 24.2846 109.295 23.9963 109.295Z" fill="#00976C"></path>
<path d="M126.238 85.7132C126.559 85.7132 126.847 85.7379 127.119 85.8038C129.623 86.3392 131.056 90.2763 130.809 92.6732C130.727 93.4886 130.43 94.4688 129.541 94.4688C129.186 94.4688 128.56 94.3452 127.597 93.7439C127.333 93.5792 126.954 93.4227 126.353 93.1756C125.842 92.9697 124.912 92.5826 124.664 92.3766C123.289 90.6387 115.761 90.3257 115.654 90.3257C84.6671 90.4822 58.4414 94.8888 35.4775 103.776C32.2982 105.003 29.1682 106.47 26.1371 107.886L24.9757 108.43C24.4404 108.677 24.1768 108.768 24.045 108.784C23.9873 108.71 23.872 108.521 23.6826 108.068C23.5261 107.697 23.3614 107.326 23.1966 106.956C22.9578 106.42 22.7271 105.91 22.5377 105.391C22.3317 104.822 22.3317 104.658 22.3317 104.649C22.3482 104.625 22.4389 104.509 22.9413 104.229C24.1356 103.57 26.7137 102.425 28.0645 101.865C40.3454 96.7009 53.6065 92.772 67.4771 90.1939C82.4843 87.4017 94.963 86.1085 106.75 86.1085C107.82 86.1085 108.891 86.1168 109.945 86.1415C111.543 86.1744 113.166 86.2321 114.764 86.3144L115.481 86.3556C116.683 86.4215 117.927 86.4874 119.162 86.4874C120.587 86.4874 121.831 86.3968 122.959 86.2156C123.281 86.1662 123.602 86.1003 123.931 86.0426C124.739 85.8861 125.496 85.7461 126.221 85.7461M126.221 84.7165C125.085 84.7165 123.931 85.0213 122.795 85.2025C121.592 85.4002 120.381 85.4661 119.162 85.4661C117.713 85.4661 116.263 85.3755 114.813 85.3013C113.199 85.219 111.576 85.1613 109.962 85.1284C108.891 85.1036 107.812 85.0954 106.741 85.0954C93.5051 85.0954 80.2604 86.7839 67.2794 89.1973C53.7136 91.7177 40.3784 95.5807 27.6527 100.935C26.3183 101.495 23.699 102.656 22.4306 103.348C21.2116 104.023 21.0798 104.443 21.5657 105.77C21.9034 106.692 22.3483 107.573 22.7271 108.488C23.1225 109.443 23.4355 109.847 23.9873 109.847C24.3415 109.847 24.7863 109.682 25.4041 109.394C28.8552 107.788 32.2982 106.14 35.8399 104.765C61.1019 94.9795 88.6866 91.52 115.645 91.38C115.645 91.38 115.662 91.38 115.67 91.38C117.087 91.38 123.083 91.9978 123.849 93.0521C124.236 93.5875 126.477 94.2958 127.037 94.65C128.025 95.2677 128.849 95.5313 129.524 95.5313C133.577 95.5313 132.036 85.8367 127.325 84.8318C126.963 84.7577 126.592 84.7248 126.229 84.7248L126.221 84.7165Z" fill="black"></path>
<path d="M143.092 100.614C142.54 100.614 142.03 100.564 141.568 100.474C140.028 100.169 138.982 99.9219 137.425 99.0158C137.104 98.8264 136.775 98.7358 136.412 98.7358C136.05 98.7358 135.696 98.8264 135.317 98.9252L135.053 98.9911C134.213 99.1971 133.365 99.3041 132.533 99.3041C128.694 99.3041 125.021 97.0226 122.953 93.349C121.298 90.4085 121.051 86.4878 122.327 83.3497C123.159 81.307 125.021 78.6135 129.139 77.4192C129.996 77.1721 131.421 76.9992 133.142 76.9415C133.356 76.9415 133.62 76.7932 133.686 76.5873C135.21 73.4574 137.648 71.7853 141.124 71.5382C141.313 71.5218 141.502 71.5135 141.692 71.5135C142.812 71.5135 143.545 71.8265 144.089 72.5514C143.957 72.7737 143.768 72.9055 143.529 73.062L143.389 73.1526C141.198 74.6517 140.399 75.6483 139.517 77.9958C139.443 78.1853 139.493 78.4076 139.641 78.5477C141.824 80.648 143.158 83.1602 143.603 86.0101C144.097 89.1565 143.397 91.7511 141.461 93.942C141.321 94.0985 141.297 94.3292 141.387 94.5104C142.837 97.4097 144.163 98.1839 148.108 98.3734C148.108 98.4146 148.116 98.4887 148.108 98.5711C148.009 99.1476 147.515 99.4853 146.7 99.8807C145.753 100.334 144.394 100.606 143.084 100.606L143.092 100.614Z" fill="#FF0011"></path>
<path d="M141.699 72.0328C142.457 72.0328 142.984 72.1892 143.388 72.5434C143.347 72.5681 143.305 72.6011 143.256 72.634L143.108 72.7329C140.834 74.2896 139.961 75.3851 139.047 77.8231C138.899 78.2103 138.998 78.6386 139.294 78.9269C141.394 80.9449 142.679 83.3582 143.108 86.101C143.585 89.1239 142.943 91.5125 141.09 93.6129C140.81 93.9259 140.752 94.3789 140.941 94.7578C142.375 97.6242 143.833 98.5961 147.415 98.8679C147.226 99.0573 146.913 99.2386 146.493 99.4362C145.612 99.8563 144.335 100.112 143.099 100.112C142.589 100.112 142.103 100.07 141.674 99.9881C140.192 99.6916 139.179 99.4527 137.688 98.5879C137.284 98.3572 136.872 98.2419 136.411 98.2419C135.983 98.2419 135.596 98.3407 135.192 98.4478L134.937 98.5137C134.138 98.7114 133.331 98.8102 132.54 98.8102C128.891 98.8102 125.391 96.6275 123.406 93.1187C121.824 90.31 121.585 86.5623 122.804 83.5641C123.595 81.6285 125.358 79.0751 129.278 77.9302C130.085 77.6914 131.502 77.5266 133.158 77.469C133.726 77.4525 133.998 77.1477 134.121 76.8842C135.579 73.8695 137.877 72.2963 141.156 72.0575C141.329 72.041 141.51 72.0328 141.691 72.0328M141.691 71.0032C141.485 71.0032 141.279 71.0114 141.081 71.0279C137.375 71.2914 134.797 73.1282 133.191 76.4311C133.191 76.4311 130.539 76.4806 128.99 76.9336C120.654 79.3552 119.485 88.2755 122.499 93.6129C124.485 97.13 128.175 99.8234 132.532 99.8234C133.388 99.8234 134.278 99.7163 135.176 99.4939C135.653 99.3786 136.032 99.255 136.403 99.255C136.65 99.255 136.897 99.3127 137.161 99.4609C138.75 100.392 139.854 100.663 141.46 100.985C141.955 101.084 142.506 101.133 143.083 101.133C144.417 101.133 145.85 100.869 146.921 100.359C147.671 100.005 148.462 99.5598 148.618 98.6702C148.684 98.3078 148.585 97.896 148.214 97.8713C144.277 97.6818 143.174 96.924 141.856 94.2883C144.038 91.8173 144.607 89.0251 144.121 85.9363C143.635 82.8393 142.169 80.2694 140.002 78.1856C140.834 75.9699 141.551 75.0392 143.676 73.5813C144.022 73.3424 144.467 73.12 144.664 72.494C143.89 71.2667 142.778 70.9949 141.683 70.9949L141.691 71.0032Z" fill="black"></path>
</svg>