<svg width="512" height="512" viewBox="0 0 512 512" fill="none" xmlns="http://www.w3.org/2000/svg">
<path d="M384.115 181.682C384.444 181.632 384.784 181.61 385.129 181.604C387.196 181.608 389.245 182.589 391.109 184.121C392.968 185.649 394.585 187.678 395.77 189.652L395.77 189.653C395.839 189.769 395.909 189.888 395.979 190.009C396.046 190.123 396.114 190.24 396.182 190.355L396.182 190.355C397.072 191.946 397.799 194.043 398.075 196.215C398.35 198.39 398.167 200.582 397.301 202.402C396.759 203.537 396.072 204.385 395.216 205C394.358 205.617 393.293 206.025 391.96 206.225C391.242 206.333 390.462 206.382 389.552 206.363L389.547 206.363L389.099 206.352C386.888 206.271 385.129 205.816 383.711 205.009L383.71 205.008C382.44 204.288 381.376 203.178 380.266 202.011L380.267 202.011L380.085 201.813L380.081 201.809L379.78 201.498C379.416 201.154 378.86 200.767 378.076 200.885C377.914 200.909 377.753 200.96 377.621 201.011L377.62 201.011C375.84 201.715 374.294 202.539 372.847 203.3L372.846 203.301C372.422 203.525 372 203.748 371.571 203.972C370.095 204.734 368.639 205.517 367.182 206.306C366.805 206.507 366.431 206.709 366.057 206.91L364.936 207.511C361.18 209.509 356.804 211.949 352.656 214.902L351.83 215.5L351.823 215.505L351.82 215.507C351.818 215.508 351.816 215.511 351.812 215.514C351.805 215.519 351.794 215.527 351.781 215.536C351.755 215.556 351.72 215.582 351.683 215.61L351.501 215.744C344.449 220.704 337.378 226.971 329.9 234.885L329.899 234.886C329.787 235.006 329.6 235.201 329.389 235.374C329.173 235.551 329.024 235.624 328.96 235.642C328.673 235.493 328.269 235.188 327.871 234.8C327.43 234.37 327.1 233.941 326.98 233.675C326.977 233.669 326.978 233.671 326.978 233.667C326.981 233.651 326.995 233.6 327.054 233.507C327.183 233.305 327.421 233.058 327.79 232.708C328.003 232.509 328.212 232.301 328.386 232.098C336.655 222.512 346.759 214.109 356.811 208.445C360.467 206.388 363.732 204.641 366.794 203.109L366.793 203.108C368.856 202.078 370.64 201.246 372.263 200.557L372.267 200.554C372.621 200.401 372.987 200.261 373.37 200.115L373.375 200.112C373.9 199.907 374.467 199.689 375.022 199.439L375.022 199.439C375.317 199.305 375.879 199.052 376.328 198.664C376.761 198.291 377.198 197.686 377.062 196.877L377.027 196.713C376.947 196.395 376.856 196.072 376.769 195.757L376.769 195.752L376.574 195.047C376.511 194.812 376.45 194.579 376.391 194.349C375.918 192.401 376.007 190.795 376.723 188.826L376.874 188.426C377.526 186.775 378.389 185.441 379.407 184.448L379.406 184.447C380.541 183.346 381.781 182.262 383.356 181.839L383.357 181.84C383.611 181.772 383.866 181.719 384.115 181.682Z" fill="#00976C" stroke="black" stroke-width="1.41244"></path>
<path d="M396.272 204.307C398.109 205.728 401.251 207.806 404.332 209.475C415.62 214.988 426.199 210.242 431.607 204.477C434.886 200.978 437.01 196.534 437.956 191.849C438.44 189.445 438.617 186.974 438.514 184.52C438.396 181.691 437.695 178.894 437.8 176.055C437.973 171.309 439.857 167.569 442.281 163.627C443.123 162.431 443.868 161.604 444.737 160.428C445.312 159.65 446.364 158.085 445.668 157.144C444.666 155.775 442.558 156.678 441.293 157.036C437.728 158.037 433.586 158.57 430.181 156.828C424.425 153.888 419.869 149.191 413.641 147.125C407.412 145.06 401.265 145.25 395.324 147.298C382.77 151.633 378.888 166.505 381.465 178.277C381.928 180.403 382.54 182.498 383.243 184.556C384.991 189.674 387.638 194.512 390.998 198.737C392.554 200.699 394.297 202.777 396.281 204.313L396.272 204.307Z" fill="#FF0011" stroke="black" stroke-width="1.41244" stroke-miterlimit="10"></path>
<path d="M438.8 182.781C438.8 182.781 435.083 170.166 421.279 170.29C421.279 170.29 427.443 157.126 414.84 147.026" stroke="black" stroke-width="1.41244" stroke-linecap="round" stroke-linejoin="round"></path>
<path d="M470.957 227.924C478.972 228.469 485.71 229.668 492.147 231.666C493.755 232.165 495.367 232.777 496.953 233.374L496.953 233.375L497.425 233.557L497.431 233.559C497.528 233.596 497.61 233.63 497.678 233.661C497.642 233.735 497.596 233.826 497.534 233.934C496.413 235.894 495.312 237.793 494.089 239.611L493.557 240.386C490.466 244.777 486.759 248.693 483.601 251.808L482.285 253.093C476.845 258.356 470.49 263.247 462.295 268.471C456.205 272.352 449.775 275.871 443.142 278.946L441.812 279.554C435.323 282.491 429.226 284.852 423.161 286.771L423.16 286.771C414.507 289.517 405.742 291.407 397.096 292.389C390.637 293.123 384.98 293.323 379.793 293.005L378.651 292.935L378.653 292.94C376.821 292.798 375.017 292.588 373.28 292.318L373.28 292.318C370.33 291.85 367.353 291.054 364.444 290.261L364.444 290.261L363.614 290.034L363.612 290.033L363.367 289.963C362.861 289.809 362.784 289.717 362.757 289.674C362.738 289.645 362.702 289.571 362.68 289.373C362.657 289.171 362.653 288.901 362.658 288.508L362.658 288.506C362.683 286.1 363.584 283.836 364.51 281.505C364.578 281.335 364.645 281.165 364.711 280.999C364.777 280.832 364.842 280.667 364.909 280.502L364.91 280.502L364.912 280.495C367.285 274.433 371.076 268.61 376.513 262.705L376.512 262.704C380.829 258.019 385.769 253.793 391.61 249.776C397.232 245.915 403.571 242.42 410.995 239.101L410.996 239.101C420.753 234.733 431.077 231.633 442.574 229.619C452.163 227.94 461.711 227.373 470.957 227.924Z" fill="#00976C" stroke="black" stroke-width="1.41244"></path>
<path d="M476.654 240.549C476.654 240.549 469.024 240.465 452.208 245.665C427.429 253.332 384.095 271.394 362.736 290.488" stroke="black" stroke-width="1.41244" stroke-linecap="round" stroke-linejoin="round"></path>
<path d="M451.487 256.578C453.019 257.133 454.576 257.729 456.114 258.345L456.114 258.346C461.87 260.664 467.534 263.478 472.966 266.724L474.05 267.378C481.079 271.672 487.027 276.319 492.192 281.546L493.215 282.6C495.658 285.158 497.681 287.654 499.386 290.222C498.983 290.738 498.443 291.15 497.783 291.631L497.779 291.634L497.53 291.818L497.527 291.819C494.692 293.923 491.264 295.509 487.015 296.662C480.825 298.338 474.004 299.104 466.195 298.983L464.619 298.947C456.005 298.693 447.249 297.436 437.839 295.098L437.838 295.097C432.907 293.875 428.008 292.385 423.287 290.674C422.523 290.397 421.756 290.112 420.99 289.822L420.991 289.822C415.793 287.834 410.75 285.546 406.02 283.014L406.019 283.014C401.818 280.768 397.828 278.244 394.146 275.513L393.414 274.964C387.999 270.853 383.924 266.648 380.941 262.116L380.937 262.11L380.59 261.593C379.768 260.363 379.079 259.319 378.778 258.086L378.723 257.836L378.709 257.763L378.707 257.754L378.678 257.547C378.663 257.359 378.686 257.225 378.723 257.13C378.758 257.042 378.817 256.955 378.922 256.872L379.043 256.79C380.99 255.649 383.039 254.482 385.143 253.568C390.245 251.369 396.045 250.001 402.89 249.387L402.89 249.388C407.796 248.951 412.969 248.913 418.266 249.296L418.267 249.295C422.21 249.573 426.311 250.11 430.752 250.93L432.676 251.299C438.907 252.538 445.233 254.311 451.487 256.578Z" fill="#00976C" stroke="black" stroke-width="1.41244"></path>
<path d="M470.408 283.86C456.413 276.855 442.054 270.371 426.986 266.039C412.698 261.932 396.007 258.71 381.293 262.375C380.868 262.482 380.45 262.592 380.033 262.715" stroke="black" stroke-width="1.41244" stroke-linecap="round" stroke-linejoin="round"></path>
<path d="M473.687 285.081C474.854 285.628 476.014 286.264 477.01 287.082" stroke="black" stroke-width="1.41244" stroke-linecap="round" stroke-linejoin="round"></path>
<path d="M348.241 311.55C348.056 311.474 347.896 311.313 347.896 310.218C347.901 309.795 347.887 309.374 347.876 308.945C347.861 308.343 347.84 307.711 347.871 307.111C347.924 305.867 348.04 305.746 349.216 305.619C350.679 305.461 353.693 305.388 355.245 305.379C369.392 305.302 383.994 306.839 398.653 309.949C414.499 313.314 427.267 317.112 438.823 321.9C439.87 322.334 440.915 322.777 441.952 323.235C443.51 323.918 445.082 324.636 446.612 325.364L447.305 325.698C448.446 326.247 449.628 326.812 450.829 327.309C452.199 327.877 453.42 328.279 454.573 328.549C454.908 328.631 455.241 328.694 455.578 328.767C456.456 328.952 457.281 329.124 458.039 329.438C458.385 329.581 458.694 329.747 458.966 329.935C461.325 331.555 461.436 336.142 459.962 338.855C459.533 339.64 458.62 340.886 457.299 340.338C456.702 340.091 456.079 339.521 455.458 338.65C455.285 338.409 454.952 338.072 454.531 337.653C454.085 337.203 453.155 336.28 453.071 335.981C452.637 334.158 446.024 330.908 445.428 330.661C415.081 318.266 387.709 311.957 361.703 311.35C358.119 311.272 354.474 311.433 350.946 311.585L349.581 311.643C349.074 311.66 348.523 311.667 348.241 311.55Z" fill="#00976C"></path>
<path d="M457.826 329.926C458.14 330.056 458.412 330.197 458.651 330.372C460.884 331.911 460.69 336.343 459.477 338.588C459.066 339.353 458.378 340.191 457.508 339.831C457.161 339.687 456.599 339.312 455.9 338.334C455.709 338.066 455.402 337.759 454.914 337.273C454.497 336.865 453.744 336.109 453.585 335.807C452.944 333.549 445.706 330.191 445.601 330.148C415.223 317.74 387.779 311.42 361.71 310.806C358.102 310.718 354.446 310.883 350.906 311.041L349.549 311.102C348.925 311.126 348.631 311.108 348.495 311.071C348.469 310.975 348.433 310.743 348.431 310.223C348.428 309.797 348.417 309.368 348.407 308.938C348.39 308.318 348.371 307.724 348.396 307.14C348.425 306.5 348.492 306.339 348.495 306.331C348.521 306.314 348.657 306.238 349.262 306.167C350.697 306.007 353.684 305.932 355.232 305.931C369.341 305.857 383.907 307.389 398.522 310.49C414.336 313.841 427.068 317.635 438.6 322.413C439.647 322.847 440.692 323.289 441.713 323.741C443.263 324.421 444.827 325.135 446.357 325.863L447.041 326.194C448.191 326.746 449.381 327.314 450.59 327.815C451.984 328.393 453.238 328.808 454.415 329.089C454.749 329.17 455.09 329.236 455.436 329.313C456.289 329.487 457.087 329.658 457.796 329.951M458.214 328.944C457.102 328.483 455.85 328.314 454.664 328.031C453.408 327.737 452.197 327.31 451.004 326.816C449.586 326.228 448.204 325.552 446.816 324.892C445.27 324.157 443.706 323.443 442.14 322.756C441.102 322.298 440.05 321.852 439.002 321.418C426.053 316.053 412.411 312.336 398.733 309.435C384.439 306.401 369.827 304.775 355.207 304.854C353.674 304.861 350.641 304.935 349.119 305.098C347.653 305.265 347.354 305.622 347.292 307.117C347.248 308.156 347.326 309.199 347.326 310.247C347.326 311.342 347.468 311.863 348.008 312.087C348.355 312.231 348.857 312.25 349.578 312.218C353.605 312.046 357.641 311.83 361.664 311.92C390.345 312.587 418.734 320.385 445.166 331.176C445.166 331.176 445.182 331.183 445.19 331.186C446.576 331.76 452.192 334.796 452.514 336.137C452.676 336.818 454.58 338.419 454.985 338.993C455.701 339.998 456.4 340.59 457.061 340.864C461.026 342.506 463.449 332.397 459.247 329.504C458.922 329.285 458.573 329.102 458.218 328.956L458.214 328.944Z" fill="black"></path>
<path d="M468.272 351.335C467.733 351.111 467.253 350.856 466.838 350.58C465.455 349.658 464.532 348.992 463.376 347.474C463.139 347.159 462.853 346.937 462.498 346.79C462.144 346.643 461.761 346.588 461.35 346.531L461.065 346.489C460.16 346.349 459.287 346.11 458.473 345.773C454.718 344.217 452.048 340.496 451.515 336.064C451.087 332.516 452.435 328.58 454.956 326.027C456.598 324.366 459.511 322.486 464.024 322.987C464.962 323.092 466.427 323.501 468.134 324.142C468.344 324.229 468.662 324.191 468.81 324.016C471.569 321.571 474.632 320.924 478.133 322.091C478.325 322.152 478.514 322.221 478.699 322.297C479.795 322.752 480.385 323.355 480.623 324.284C480.404 324.449 480.165 324.501 479.868 324.557L479.694 324.589C476.943 325.167 475.758 325.818 473.944 327.758C473.794 327.913 473.753 328.151 473.841 328.348C475.125 331.287 475.412 334.286 474.692 337.255C473.9 340.533 472.163 342.788 469.381 344.146C469.181 344.243 469.063 344.458 469.078 344.672C469.321 348.097 470.305 349.392 474.088 351.176C474.071 351.217 474.049 351.292 474.008 351.37C473.677 351.894 473.057 352.024 472.099 352.08C470.989 352.139 469.549 351.854 468.268 351.323L468.272 351.335Z" fill="#FF0011"></path>
<path d="M478.497 322.808C479.238 323.116 479.691 323.482 479.942 323.993C479.892 324 479.838 324.016 479.776 324.028L479.591 324.064C476.736 324.666 475.438 325.384 473.555 327.398C473.253 327.717 473.176 328.176 473.349 328.578C474.586 331.404 474.865 334.286 474.172 337.143C473.414 340.294 471.817 342.37 469.153 343.674C468.752 343.867 468.512 344.286 468.544 344.734C468.784 348.119 469.816 349.661 473.211 351.379C472.949 351.488 472.569 351.538 472.078 351.561C471.046 351.615 469.693 351.347 468.485 350.846C467.985 350.639 467.526 350.402 467.141 350.148C465.81 349.257 464.916 348.613 463.808 347.162C463.507 346.773 463.151 346.493 462.699 346.306C462.28 346.132 461.861 346.072 461.423 346.013L461.147 345.974C460.285 345.844 459.455 345.613 458.682 345.293C455.112 343.814 452.572 340.259 452.052 336.022C451.644 332.633 452.929 328.869 455.337 326.43C456.895 324.857 459.655 323.074 463.955 323.543C464.841 323.637 466.294 324.05 467.937 324.664C468.5 324.879 468.889 324.691 469.117 324.483C471.765 322.125 474.651 321.517 477.955 322.612C478.131 322.666 478.312 322.732 478.489 322.805M478.906 321.798C478.705 321.714 478.5 321.639 478.3 321.575C474.567 320.33 471.3 321.082 468.39 323.662C468.39 323.662 465.775 322.636 464.077 322.451C454.94 321.441 450.18 329.694 450.965 336.138C451.482 340.383 454 344.514 458.263 346.281C459.101 346.628 460.014 346.884 460.983 347.03C461.497 347.111 461.918 347.144 462.281 347.294C462.522 347.394 462.741 347.551 462.938 347.803C464.116 349.358 465.086 350.071 466.527 351.036C466.97 351.333 467.49 351.605 468.054 351.839C469.36 352.38 470.869 352.703 472.123 352.637C473 352.595 473.954 352.48 474.468 351.673C474.679 351.346 474.75 350.903 474.397 350.728C470.622 348.947 469.849 347.758 469.628 344.645C472.766 343.113 474.453 340.611 475.23 337.392C476.01 334.165 475.617 331.057 474.343 328.14C476.055 326.31 477.133 325.69 479.803 325.125C480.239 325.031 480.764 324.994 481.211 324.462C480.951 322.947 479.973 322.23 478.902 321.786L478.906 321.798Z" fill="black"></path>
<path d="M414.927 203.488C417.523 204.147 420.116 205.425 422.624 207.299L422.625 207.299C426.301 210.041 428.487 213.828 430.675 217.644L430.676 217.645C432.179 220.257 433.777 223.037 435.908 225.49C438.245 228.179 441.11 230.471 443.813 232.635L443.814 232.636C449.202 236.943 454.026 240.837 455.339 247.301L455.338 247.302C456.261 251.816 455.044 256.625 453.812 261.481C452.953 264.862 452.035 268.466 451.966 271.875L451.966 271.876C451.89 275.763 453.174 279.431 454.367 282.84C455.307 285.538 456.248 288.254 456.609 291.072L456.673 291.638C457.247 297.477 456.066 305.213 451.279 309.715C449.978 310.931 448.511 311.864 447.028 312.799C444.131 314.62 441.004 316.591 438.716 321.163C437.828 322.935 437.066 324.894 436.27 326.931C434.089 332.515 431.929 337.962 427.319 340.713C423.043 343.257 417.145 343.886 411.115 342.356C410.822 342.281 410.545 342.21 410.284 342.127L410.265 342.122C405.742 340.814 402.276 338.916 398.207 336.383L396.422 335.258C379.1 324.237 367.02 304.245 364.927 283.09C362.979 263.361 368.882 242.509 381.598 224.383C393.361 207.61 404.562 200.857 414.927 203.488Z" fill="#FF58CD" stroke="black" stroke-width="1.41244"></path>
<path d="M427.58 228.514C427.58 228.514 420.363 237.108 408.899 240.493" stroke="black" stroke-width="1.41244" stroke-linecap="round" stroke-linejoin="round"></path>
<path d="M444.929 256.466C444.929 256.466 437.235 257.749 420.855 262.759" stroke="black" stroke-width="1.41244" stroke-linecap="round" stroke-linejoin="round"></path>
<path d="M448.004 296.081C448.004 296.081 433.163 285.841 421.445 288.798" stroke="black" stroke-width="1.41244" stroke-linecap="round" stroke-linejoin="round"></path>
<path d="M413.72 309.313C413.72 309.313 426.582 317.428 429.164 327.792" stroke="black" stroke-width="1.41244" stroke-linecap="round" stroke-linejoin="round"></path>
<path d="M403.756 318.106C403.756 318.106 417.544 326.101 414.359 342.91" stroke="black" stroke-width="1.41244" stroke-linecap="round" stroke-linejoin="round"></path>
<path d="M388.858 324.699C409.261 324.536 425.631 303.081 425.421 276.777C425.212 250.473 408.502 229.281 388.099 229.444C367.696 229.606 351.326 251.062 351.535 277.366C351.745 303.669 368.454 324.861 388.858 324.699Z" fill="white" stroke="black" stroke-width="1.41244" stroke-miterlimit="10"></path>
<path d="M380.876 310.477C394.728 311.058 406.575 296.811 407.337 278.655C408.099 260.499 397.488 245.309 383.636 244.727C369.785 244.146 357.938 258.393 357.176 276.549C356.414 294.706 367.025 309.895 380.876 310.477Z" fill="#FFD200" stroke="black" stroke-width="1.41244" stroke-miterlimit="10"></path>
<path d="M409.905 202.55C410.689 202.749 411.398 203.511 411.87 205.398L411.871 205.399C412.182 206.631 412.199 207.407 412.125 208.657C411.743 214.527 409.112 219.74 404.259 224.16C401.154 226.988 397.912 228.485 394.333 228.794C393.829 228.836 393.477 228.909 393.227 229.004C392.974 229.1 392.763 229.243 392.637 229.459L392.626 229.478L392.618 229.496C392.496 229.737 392.5 230.008 392.557 230.276C392.614 230.55 392.745 230.912 392.988 231.406L392.989 231.406C394.436 234.343 394.263 237.37 393.786 240.106L393.687 240.649C392.599 246.372 390.038 251.402 386.062 255.614L386.061 255.615C385.501 256.208 385.089 256.738 384.987 257.302C384.872 257.936 385.176 258.426 385.423 258.793L385.423 258.794C385.587 259.047 385.836 259.261 386.069 259.433L386.069 259.434L386.075 259.438C389.122 261.638 390.801 264.816 391.307 269.593L391.308 269.594C391.647 272.764 391.116 275.982 389.668 279.468C388.878 281.358 387.737 282.901 386.281 284.067L386.279 284.068L386.138 284.183L386.135 284.185C385.909 284.37 385.538 284.649 385.306 284.98L385.304 284.982C385.194 285.141 385.096 285.311 385.03 285.486C384.97 285.644 384.906 285.886 384.964 286.149L384.965 286.158L384.968 286.167C385.036 286.442 385.213 286.638 385.351 286.761C385.502 286.894 385.682 287.007 385.872 287.102L385.873 287.101C386.235 287.29 386.621 287.459 386.956 287.614L386.96 287.616C387.666 287.937 388.329 288.236 388.931 288.644L388.932 288.645C393.617 291.799 396.374 296.332 397.343 302.6L397.432 303.212C397.861 306.398 397.439 309.505 396.17 312.456C396.08 312.664 395.936 313.004 395.828 313.332C395.774 313.495 395.722 313.677 395.694 313.849C395.672 313.979 395.631 314.267 395.752 314.539L395.753 314.538C395.822 314.695 395.926 314.804 395.997 314.868C396.075 314.938 396.158 314.995 396.232 315.04C396.379 315.13 396.548 315.209 396.705 315.275C397.021 315.408 397.379 315.526 397.605 315.601L397.606 315.602C402.628 317.265 406.7 320.546 410.055 325.695C412.584 329.584 415.02 334.168 414.659 339.527L414.658 339.538C414.643 339.837 414.64 340.423 414.646 341.058L414.646 341.059C414.653 342.001 414.65 342.997 414.602 343.541C411.285 343.575 405.702 342.522 401.47 341.496L401.483 341.478L400.533 341.236C400.032 341.109 399.575 340.992 399.138 340.872L399.137 340.872C368.992 332.647 346.662 305.895 344.8 275.853L344.8 275.835L344.797 275.817L344.702 274.876C343.816 265.1 346.07 253.585 351.119 242.347C355.844 231.836 364.871 221.989 375.505 214.704C386.142 207.418 398.314 202.745 409.284 202.496L409.313 202.495C409.507 202.483 409.707 202.499 409.905 202.55Z" fill="#FF58CD" stroke="black" stroke-width="1.41244"></path>
<path d="M40.9783 230.636L42.5546 230.729C52.4155 231.308 61.2002 232.828 70.2182 235.515C81.7025 238.941 92.332 244.031 101.831 250.665C107.577 254.673 112.5 259.22 116.461 264.152C117.163 265.027 117.787 265.978 118.311 266.972C118.447 267.23 118.521 267.423 118.555 267.557C118.568 267.611 118.571 267.647 118.572 267.668C118.558 267.684 118.533 267.714 118.484 267.751C118.364 267.842 118.169 267.955 117.868 268.09L117.866 268.091C112.279 270.615 106.303 271.88 100.593 272.967C95.4111 273.954 89.9432 274.485 84.3417 274.553L83.2192 274.561C80.9423 274.561 78.6711 274.503 76.4647 274.374C66.1185 273.766 56.2751 271.659 47.1869 268.123L46.3102 267.776C41.4425 265.818 37.153 263.688 33.1864 261.255L32.3294 260.721C23.8209 255.331 16.9848 248.336 11.9822 239.902L11.488 239.055C11.2311 238.603 11.0089 238.088 10.8089 237.575C10.6278 237.11 10.5 236.74 10.4345 236.453C10.3816 236.221 10.386 236.116 10.3885 236.087C10.4042 236.067 10.4569 236.012 10.5977 235.924C10.7996 235.797 11.1138 235.646 11.5957 235.453C14.5104 234.317 16.7518 233.552 18.881 232.981L18.882 232.98C26.0283 231.05 33.8784 230.22 40.9783 230.636ZM118.578 267.678C118.578 267.676 118.578 267.675 118.578 267.674C118.579 267.672 118.581 267.669 118.581 267.667L118.578 267.678Z" fill="#00976C" stroke="black" stroke-width="1.41244"></path>
<path d="M27.0548 246.346C27.0548 246.346 68.7956 240.019 118.68 267.848" stroke="black" stroke-width="1.41244" stroke-linecap="round" stroke-linejoin="round"></path>
<path d="M156.308 237.992C156.121 238.083 155.893 238.073 155.708 237.971C143.548 230.931 129.999 225.286 114.292 220.701C97.6997 215.866 82.7319 213.584 68.5304 213.73C68.4662 213.729 68.3954 213.747 68.3372 213.775C68.2468 213.819 68.1753 213.885 68.1323 213.978C68.1158 214.01 68.1056 214.055 68.0923 214.093C67.9193 214.543 66.4042 217.674 66.1786 217.982C65.2868 219.154 64.1504 220.133 62.8023 220.873C62.4758 221.054 62.1396 221.233 61.8037 221.395C59.2972 222.606 57.487 222.636 55.9365 221.489C53.4805 219.672 52.4265 215.974 52.4818 213.301C52.5567 209.648 54.5625 206.065 57.5852 204.173C57.7275 204.089 57.8634 204.007 58.0055 203.938C58.3737 203.761 58.7669 203.634 59.1753 203.572C60.719 203.32 62.5569 203.859 64.7975 205.23C66.7071 206.395 67.5383 208.296 68.0928 210.005C68.133 210.121 68.2119 210.218 68.3236 210.268C68.3842 210.294 68.4319 210.327 68.4764 210.353C68.5974 210.422 68.7439 210.511 68.9366 210.497C77.2273 210.109 85.5584 211.485 92.9131 212.688C98.3307 213.577 103.636 214.479 108.927 215.683C121.56 218.559 133.326 222.722 143.898 228.06C146.639 229.445 149.373 230.849 152.104 232.262L155.667 234.094C156.639 234.589 157.065 235.387 156.929 236.457C156.9 236.71 156.822 236.963 156.742 237.241L156.631 237.621C156.577 237.791 156.466 237.924 156.305 238.002L156.308 237.992Z" fill="#00976C"></path>
<path d="M58.1992 204.339C58.5286 204.18 58.88 204.066 59.2433 204.01C60.6745 203.772 62.4164 204.293 64.5647 205.606C66.3471 206.689 67.1066 208.426 67.6708 210.137C67.7446 210.372 67.9154 210.561 68.1322 210.663C68.1832 210.686 68.2182 210.709 68.2532 210.732C68.3965 210.814 68.6321 210.955 68.9596 210.941C77.2053 210.558 85.5141 211.921 92.8399 213.13C98.251 214.022 103.546 214.921 108.828 216.122C121.426 218.99 133.154 223.14 143.694 228.462C146.422 229.837 149.185 231.267 151.856 232.638C153.054 233.254 154.255 233.877 155.453 234.493C156.26 234.908 156.585 235.516 156.471 236.4C156.439 236.614 156.371 236.854 156.304 237.11L156.254 237.27L156.193 237.49C156.176 237.538 156.147 237.576 156.102 237.598C156.069 237.614 155.998 237.632 155.922 237.589C143.73 230.532 130.149 224.871 114.407 220.279C97.7699 215.433 82.7572 213.142 68.5172 213.29L68.5275 214.185L67.7985 214.705C67.5907 214.407 67.6209 214.074 67.6774 213.927C67.5341 214.323 66.0522 217.374 65.8197 217.717C64.9637 218.848 63.8761 219.78 62.5862 220.491C62.2273 220.688 61.9106 220.857 61.6069 221.004C59.2684 222.134 57.5992 222.176 56.2045 221.137C53.882 219.414 52.874 215.877 52.9309 213.324C53.0039 209.814 54.921 206.378 57.8207 204.562C57.9437 204.487 58.0762 204.414 58.2054 204.352M57.8152 203.545C57.6602 203.619 57.5018 203.704 57.3496 203.801C54.149 205.802 52.1154 209.542 52.0358 213.302C51.9731 216.289 53.184 220.015 55.675 221.855C57.7053 223.352 59.9493 222.801 62.0036 221.809C62.3525 221.64 62.6951 221.459 63.0281 221.274C64.3924 220.519 65.5967 219.498 66.544 218.26C66.8152 217.898 68.6077 214.187 68.5436 214.186C84.2118 214.025 99.3204 216.812 114.177 221.139C128.545 225.328 142.411 230.787 155.498 238.36C155.829 238.551 156.204 238.553 156.514 238.403C156.773 238.278 156.981 238.05 157.072 237.743C157.099 237.666 157.116 237.586 157.136 237.513C157.23 237.18 157.334 236.851 157.377 236.512C157.539 235.246 157.016 234.28 155.881 233.696C151.962 231.686 148.045 229.65 144.112 227.662C132.95 222.027 121.202 218.015 109.036 215.248C103.735 214.041 98.3625 213.131 92.9962 212.25C85.0332 210.942 77.0503 209.676 68.9298 210.055C68.8367 210.06 68.7353 209.965 68.528 209.866C67.8838 207.907 66.9912 206.043 65.0369 204.852C63.2514 203.762 61.1239 202.806 59.1075 203.135C58.6733 203.21 58.2416 203.339 57.8217 203.541L57.8152 203.545Z" fill="black"></path>
<path d="M59.0344 202.669C58.7132 199.119 57.4928 196.099 55.4001 193.516C51.1262 188.25 45.3366 186.163 38.7712 186.627C32.3409 187.073 27.4979 190.457 24.1761 195.967C23.1421 197.686 22.2165 199.464 21.1825 201.183C20.4112 202.456 19.5006 203.589 18.2183 204.448C16.0519 205.901 13.6189 206.424 11.1203 206.81C10.2682 206.943 9.54238 207.222 9.36607 208.16C9.18998 209.082 9.6501 209.704 10.4568 210.087C11.3814 210.533 12.342 210.921 13.2568 211.38C16.8201 213.18 19.1407 216.234 21.2214 219.468C22.2744 221.103 23.1396 222.86 23.9791 224.614C26.3323 229.533 29.9177 233.027 35.1129 234.939C43.5489 238.05 52.0335 234.237 55.5663 227.35C56.2683 225.983 56.8396 224.543 57.5079 223.057C61.1966 213.178 59.0377 202.659 59.0377 202.659L59.0344 202.669Z" fill="#FF58CD" stroke="black" stroke-width="1.41244" stroke-miterlimit="10"></path>
<path d="M23.6016 224.111C23.6016 224.111 20.27 214.167 30.6383 209.156C30.6383 209.156 22.0814 204.773 24.1834 195.964" stroke="black" stroke-width="1.41244" stroke-linecap="round" stroke-linejoin="round"></path>
<path d="M110.244 178.427C110.356 178.449 110.457 178.486 110.534 178.517C110.648 178.563 110.769 178.622 110.89 178.688C111.132 178.818 111.416 178.994 111.719 179.193C112.325 179.591 113.047 180.111 113.737 180.622C114.415 181.126 115.088 181.643 115.59 182.033L116.414 182.678L116.423 182.684L116.432 182.692C119.294 185.003 125.896 192.021 132.218 199.179C138.537 206.333 144.685 213.749 146.621 216.887L146.768 217.121L146.898 217.331C147.033 217.562 147.169 217.853 147.17 218.177C147.172 218.674 146.879 219.039 146.591 219.319L146.583 219.326L146.571 219.337C146.515 219.39 146.468 219.434 146.416 219.491L146.36 219.552L146.291 219.599C145.985 219.806 145.494 220.138 144.979 220.417C144.721 220.558 144.444 220.692 144.169 220.793C143.902 220.891 143.594 220.973 143.288 220.973C142.72 220.973 142.138 220.731 141.648 220.369C141.167 220.014 140.729 219.509 140.428 218.888C139.174 217.079 129.943 204.914 125.51 200.481L125.48 200.452L125.455 200.42C122.38 196.537 114.232 188.662 109.34 185.037C109.245 184.967 109.129 184.897 108.932 184.768L108.932 184.767C108.622 184.571 108.218 184.317 107.872 184.013C107.526 183.709 107.158 183.287 107.026 182.73L107 182.619L107.002 182.591C107.002 182.589 107.001 182.587 107.001 182.584C106.999 182.572 106.995 182.551 106.993 182.527C106.992 182.514 106.991 182.496 106.991 182.476C106.991 182.473 106.991 182.47 106.991 182.467C106.984 182.377 106.979 182.237 107.013 182.051C107.052 181.843 107.133 181.607 107.274 181.326C107.552 180.771 108.092 179.982 109.126 178.803L109.131 178.797L109.244 178.689C109.361 178.592 109.489 178.528 109.599 178.487C109.747 178.431 109.933 178.393 110.129 178.41L110.244 178.427Z" fill="#00976C" stroke="black" stroke-width="1.41244"></path>
<path d="M86.3565 195.873C100.77 197.142 113.483 186.486 114.751 172.073C116.02 157.659 105.364 144.947 90.9506 143.678C76.5373 142.409 63.8246 153.065 62.556 167.479C61.2873 181.892 71.9432 194.605 86.3565 195.873Z" fill="#FF0011" stroke="black" stroke-width="1.41244" stroke-miterlimit="10"></path>
<path d="M80.5352 153.35C80.2821 159.407 76.2705 168.973 72.5412 171.295C68.4215 173.863 65.6438 171.35 65.8449 166.504C66.0019 162.624 68.8194 157.312 71.8597 154.902C74.2907 152.971 76.2505 154.065 76.1208 157.169C76.0183 159.653 73.1343 166.265 71.1814 167.807C69.6244 169.043 67.6387 167.933 67.8773 165.221C68.1757 161.832 69.9967 158.993 71.2451 158.004C72.2439 157.21 73.2696 157.587 73.219 158.86C73.1776 159.875 71.0981 165.184 69.907 164.901C68.5822 164.587 69.7139 162.207 70.7266 160.868" stroke="#FFD200" stroke-width="1.41244" stroke-miterlimit="10"></path>
<path d="M80.8018 268.5C81.9929 267.829 83.2508 267.28 84.5283 266.878C86.9236 266.123 89.3683 265.853 92.0191 266.053L92.0205 266.053C92.8961 266.117 93.65 266.587 94.4761 267.111L94.4816 267.114C94.6671 267.23 94.8716 267.362 95.0799 267.482L95.2889 267.597C95.7977 267.871 96.2941 268.175 96.8409 268.506L96.844 268.507C97.0953 268.658 97.3277 268.801 97.6062 268.969L97.6066 268.97C97.8984 269.146 98.0113 269.509 97.8749 269.809L97.8733 269.812C94.9468 276.323 94.081 283.291 95.2816 290.514L95.2812 290.516C96.5901 298.359 99.8642 304.194 105.336 308.261L105.339 308.262C105.492 308.375 105.591 308.551 105.608 308.74C105.625 308.922 105.559 309.106 105.429 309.237C105.249 309.419 105.069 309.595 104.889 309.77L104.349 310.29C103.606 310.999 102.83 311.724 102.274 312.547C101.963 313.007 101.658 313.493 101.373 313.951L101.371 313.955C100.52 315.344 99.6923 316.663 98.4011 317.703C98.0288 318 97.6622 318.258 97.3045 318.476L97.2779 318.469L97.0226 318.613C96.3738 318.978 95.7627 319.208 95.2034 319.311L95.2043 319.31C93.475 319.628 91.7103 319.822 89.9829 320.003L89.9808 320.003L87.6729 320.262L87.6708 320.262C85.0723 320.581 82.7829 321.782 80.5025 322.975L80.5016 322.975L79.9539 323.262L79.953 323.263C76.6935 324.955 73.1348 324.174 70.8276 321.232L70.8271 321.231L70.6024 320.94C68.4677 318.104 67.2859 314.747 67.0086 310.664L66.9643 309.809C66.921 308.605 66.8857 307.395 66.8501 306.183C66.7782 303.503 66.6974 300.719 66.5068 297.994L66.5067 297.992C66.4562 297.301 66.3689 296.619 66.2878 295.936L66.2868 295.932C66.1464 294.801 66.0101 293.715 66.0152 292.573L66.0151 292.571C66.0216 289.14 66.6815 286.034 68.0521 283.065L68.0525 283.063C69.7982 279.261 72.1749 275.85 75.1206 272.934L75.121 272.932C77.0964 270.972 78.8958 269.573 80.8018 268.5Z" fill="#FF58CD" stroke="black" stroke-width="1.41244"></path>
<path d="M55.6045 255.891C55.8777 255.737 56.155 255.608 56.4638 255.456L56.4642 255.457C56.7349 255.325 57.0024 255.197 57.2432 255.061C57.4901 254.922 57.8024 254.962 58.0107 255.152L58.0934 255.244L58.2621 255.471L58.2682 255.48C58.3981 255.651 58.4338 255.881 58.3633 256.079L58.3613 256.084L57.9014 257.4L57.9007 257.403C57.5522 258.414 57.2267 259.371 56.8764 260.321L56.8752 260.323C55.9285 262.916 55.8008 265.703 56.4529 268.79L56.5932 269.41C56.9777 271.025 58.0848 272.227 59.91 273.304L59.9105 273.304C61.5333 274.269 62.9348 274.657 64.3533 274.366L64.3541 274.365C64.5864 274.317 64.7715 274.359 64.9954 274.415L65.0176 274.421L65.0401 274.425L65.0653 274.432C65.0874 274.438 65.1442 274.454 65.213 274.465L65.2135 274.466C65.4382 274.505 65.6367 274.673 65.7132 274.908C65.7906 275.145 65.7297 275.397 65.573 275.56L65.5697 275.565C63.3849 277.876 61.9206 280.091 61.0086 282.517C59.7235 285.922 59.6543 288.632 60.966 291.183C62.6571 294.488 61.7689 297.562 60.6942 300.38C60.1711 301.749 59.8928 303.327 59.8594 304.944L59.8597 304.948C59.845 305.971 60.2611 306.941 61.0152 307.689L61.0156 307.69C61.9758 308.641 63.3417 309.149 64.7609 309.112L64.7613 309.113C65.057 309.107 65.3467 309.092 65.6446 309.077L66.1887 309.054L66.1892 309.055C66.5424 309.042 66.8397 309.3 66.8784 309.642C66.9106 309.972 66.9425 310.298 66.97 310.615C67.0227 311.277 67.0824 311.918 67.189 312.533C67.9264 316.918 69.4469 320.12 72.0215 322.468L72.2748 322.693C73.4934 323.758 74.8257 324.236 76.3045 324.121L76.3097 324.121C76.6618 324.091 76.9999 324.099 77.5113 324.175L78.0886 324.274C78.3151 324.319 78.4991 324.469 78.5901 324.681C78.6711 324.892 78.6412 325.128 78.5087 325.311L78.5075 325.313C78.4282 325.422 78.4054 325.439 78.2746 325.61L78.2689 325.617C78.2584 325.631 78.2515 325.637 78.2069 325.69C78.1899 325.711 78.1656 325.741 78.1411 325.775C78.1176 325.806 78.0829 325.857 78.0511 325.919L78.0343 325.951L78.0211 325.986C77.9205 326.248 77.819 326.635 77.8988 327.116C77.9783 327.594 78.2249 328.093 78.6903 328.609L78.9146 328.858L79.2108 328.843C79.2127 328.843 79.2147 328.843 79.217 328.844C79.2419 328.846 79.277 328.85 79.3181 328.856C79.3999 328.868 79.4825 328.88 79.5392 328.889L79.5397 328.889C79.8006 328.929 80.0054 328.959 80.1996 329.006L80.2001 329.007C80.3538 329.05 80.546 329.087 80.634 329.107L80.6459 329.11C81.1468 329.216 81.5797 329.302 81.9833 329.505L81.9877 329.507C82.7896 329.903 83.5324 330.334 84.3426 330.799L84.3462 330.802C84.3475 330.802 84.35 330.803 84.3525 330.805C84.3576 330.808 84.3648 330.812 84.3741 330.817C84.3933 330.828 84.421 330.844 84.4551 330.863C84.5234 330.902 84.6175 330.956 84.7205 331.014C84.9257 331.131 85.1696 331.268 85.3146 331.349L85.3159 331.349C85.4847 331.443 85.6048 331.61 85.6382 331.812C85.6717 332.015 85.6128 332.208 85.4827 332.356L84.8654 333.051C84.4128 333.555 84.021 334.004 83.6339 334.461L83.6327 334.462C82.828 335.419 82.471 336.536 82.6371 337.724C82.72 338.321 82.615 338.747 82.4406 339.079C82.2587 339.425 81.9782 339.712 81.6404 339.992C81.3068 340.267 80.9663 340.51 80.5969 340.734L80.5942 340.734L80.3398 340.877C79.3229 341.45 78.2483 341.796 77.1882 342.107L77.1874 342.107C74.9275 342.758 72.6132 342.629 69.8652 341.659C67.9995 341.001 66.5897 340.009 65.6033 338.712C64.6162 337.414 64.0196 335.767 63.8516 333.746L63.8511 333.745C63.7938 333.059 63.6565 332.45 63.2941 331.962C62.9206 331.459 62.3871 331.187 61.7734 331.005C60.548 330.635 59.6216 329.969 58.9754 329.041C58.3235 328.105 57.9267 326.857 57.8456 325.287C57.7618 323.664 57.7683 322.036 57.7783 320.446L57.7782 320.444L57.7793 320.138C57.7923 317.866 56.4324 316.209 55.1634 314.893C53.8638 313.545 52.3337 311.989 50.7026 310.492L49.9974 309.855C48.6299 308.635 48.4248 307.087 48.2515 305.62L48.2502 305.611L48.173 305.018L48.1732 305.015C47.898 302.981 48.7131 301.35 49.5441 299.731L49.5448 299.728C49.7441 299.336 49.9526 298.935 50.1388 298.516C51.4731 295.592 52.3267 293.069 52.8027 290.648L52.8926 290.165L52.8933 290.162C53.4625 286.868 52.9745 283.483 51.4741 280.12C50.3552 277.606 49.1135 274.641 48.3039 271.539C47.4374 268.22 48.0917 264.836 50.2534 261.719C51.5503 259.849 53.0947 258.182 54.607 256.635C54.8666 256.37 55.1787 256.131 55.6045 255.891Z" fill="#FF58CD" stroke="black" stroke-width="1.41244"></path>
<path d="M139.536 260.479C139.862 260.296 140.259 260.411 140.435 260.724C140.457 260.764 140.48 260.818 140.497 260.882L140.504 260.906L140.511 260.929C141.943 265.014 144.507 268.392 147.122 271.857L147.123 271.86L147.321 272.119C149.63 275.169 150.765 278.619 150.705 282.396C150.639 286.352 150.192 289.452 149.312 292.189L149.312 292.19C148.436 294.931 147.48 296.903 146.226 298.622L146.225 298.622C145.452 299.686 144.727 300.825 144.037 301.91C143.192 303.232 142.35 304.561 141.401 305.798L141.399 305.8C140.237 307.324 139.505 309.067 138.772 310.803C138.363 311.773 137.952 312.74 137.472 313.684L137.263 314.084C135.557 317.234 133.561 319.392 131.171 320.738C130.419 321.161 129.611 321.509 128.776 321.775C126.227 322.578 123.441 322.663 120.469 322.002L119.871 321.86C116.516 321.012 113.264 321.343 109.671 322.846L109.669 322.847C109.423 322.951 109.152 322.898 108.965 322.714L108.955 322.704C108.771 322.53 108.708 322.259 108.802 322.012L108.803 322.006C109.062 321.316 109.307 320.634 109.547 319.983L109.549 319.977C110.118 318.39 110.639 316.938 111.294 315.515C111.739 314.551 112.33 313.689 113.029 312.779L113.762 311.849C113.912 311.671 114.1 311.511 114.343 311.375C114.792 311.122 115.315 310.997 115.7 310.938L115.7 310.937C117.695 310.638 119.491 310.027 121.19 309.07C123.314 307.874 125.221 306.165 127.023 303.865L127.023 303.864C130.25 299.738 132.119 294.668 132.765 288.414C132.903 287.107 132.836 285.772 132.774 284.434C132.724 283.337 132.675 282.239 132.729 281.137L132.729 281.134C132.844 278.565 133.112 276.68 133.577 274.996L133.578 274.995C134.321 272.291 135.291 269.421 136.648 265.948C137.137 264.694 137.777 263.518 138.429 262.337L138.431 262.335C138.723 261.803 139.009 261.285 139.278 260.755L139.283 260.746L139.287 260.737C139.332 260.64 139.42 260.544 139.536 260.479Z" fill="#FF58CD" stroke="black" stroke-width="1.41244"></path>
<path d="M141.011 246.871C141.261 246.734 141.488 246.741 141.667 246.828L141.741 246.87C142.08 247.099 142.454 247.337 142.849 247.59L142.849 247.591C143.947 248.299 145.127 249.063 146.284 249.916L146.284 249.916C146.96 250.413 147.513 251.004 148.105 251.63L148.736 252.283C149.061 252.611 149.381 252.949 149.707 253.29L149.707 253.291C150.301 253.925 150.863 254.51 151.47 255.056L151.47 255.056L151.474 255.059C154.851 258.056 157.543 261.64 159.49 265.705C161.591 270.101 162.772 274.208 163.137 278.277C163.413 281.362 163.049 284.427 162.028 287.647C161.763 288.472 161.596 289.345 161.428 290.2L161.428 290.202C161.232 291.211 161.038 292.19 160.703 293.145L160.702 293.149C159.842 295.642 158.602 298.823 156.538 301.712C155.435 303.243 154.82 305.254 154.311 307.049C153.767 308.975 152.626 310.396 150.638 311.55L150.624 311.551L150.479 311.633C150.057 311.87 149.597 312.1 149.057 312.335C148.561 312.55 148.073 312.672 147.528 312.812L147.529 312.812C147.294 312.867 147.09 312.925 146.92 312.972L146.917 312.973C145.653 313.326 144.168 313.053 142.876 312.308C141.666 311.611 140.704 310.544 140.287 309.335L140.211 309.091C140.107 308.72 140.141 308.291 140.284 307.827C140.427 307.365 140.664 306.913 140.908 306.528L140.91 306.529C141.382 305.788 141.865 305.048 142.35 304.312L143.806 302.121C144.962 300.383 146.158 298.584 147.282 296.784L147.281 296.784C148.955 294.12 149.999 290.972 150.497 287.201L150.496 287.199C150.8 284.855 151.05 282.014 150.532 279.103C150.044 276.36 148.937 273.899 147.167 271.621L146.805 271.168C145.092 269.084 143.493 266.875 142.057 264.614C140.769 262.588 140.136 260.505 140.149 258.421L140.149 258.419C140.151 257.739 140.273 257.1 140.412 256.416C140.481 256.099 140.532 255.841 140.572 255.575C140.643 255.136 140.73 254.686 140.823 254.238L140.825 254.231C141.01 253.29 141.21 252.305 141.216 251.359L141.215 251.359C141.225 250.354 141.038 249.322 140.887 248.479C140.82 248.09 140.76 247.787 140.719 247.503C140.685 247.248 140.803 247.002 141.011 246.871Z" fill="#FF58CD" stroke="black" stroke-width="1.41244"></path>
<path d="M118.319 233.652C119.872 232.778 121.459 232.93 122.789 233.062C123.248 233.11 123.711 233.144 124.177 233.166C125.189 233.238 126.135 233.299 127.075 233.494L127.076 233.494C130.335 234.16 133.135 235.928 135.414 238.8L135.864 239.39C137.567 241.719 139.005 244.306 140.255 247.315L140.255 247.316C141.402 250.063 140.981 252.486 140.53 255.019L140.528 255.029L140.483 255.304C140.169 257.091 139.655 258.983 138.871 261.275C138.62 262.002 138.265 262.663 137.889 263.349L137.887 263.351C137.596 263.887 137.289 264.448 137.07 265.022L136.455 266.611C135.495 269.084 134.473 271.691 133.77 274.3C133.333 275.889 133.183 277.556 133.015 279.225C132.936 280.006 132.862 280.805 132.762 281.579L132.761 281.586C132.742 281.748 132.69 281.853 132.616 282.032L132.561 282.155L132.555 282.168L132.55 282.181C132.496 282.318 132.395 282.436 132.262 282.51L132.246 282.519C132.186 282.553 132.121 282.576 132.056 282.586L132.046 282.587L131.956 282.597C131.75 282.606 131.557 282.523 131.43 282.379L131.43 282.378C129.344 280.008 128.697 277.293 128.163 274.31L128.163 274.308C127.928 273.016 127.702 271.673 127.624 270.317L127.624 270.315C127.541 268.962 127.566 267.565 127.686 266.171C128.151 260.749 126.565 256.242 122.838 252.474C121.178 250.794 119.468 248.943 117.628 246.842L116.832 245.927C115.838 244.773 115.229 243.699 114.978 242.727L114.977 242.724C114.656 241.504 114.796 240.21 114.941 238.926L114.94 238.926C115.18 236.774 116.071 235.236 117.773 234.005L117.775 234.005C117.958 233.873 118.145 233.75 118.319 233.652Z" fill="#FF58CD" stroke="black" stroke-width="1.41244"></path>
<path d="M80.858 322.885C84.1772 321.016 87.6096 320.04 91.364 319.89L91.3648 319.889C93.1326 319.818 95.3188 319.632 97.0953 318.632C97.9293 318.162 98.622 317.552 99.1996 316.77L99.2009 316.77C100.249 315.365 101.135 313.972 101.825 312.642L101.827 312.642C102.435 311.478 103.33 310.571 104.61 309.85C104.86 309.709 105.131 309.575 105.432 309.435L105.435 309.434C105.719 309.301 106.359 309.085 106.929 309.279L106.936 309.281C108.43 309.777 109.941 310.323 111.423 310.85L112.9 311.374L112.905 311.377C113.087 311.439 113.24 311.594 113.302 311.792L113.306 311.803C113.366 311.986 113.338 312.203 113.219 312.377C113.066 312.596 112.882 312.836 112.684 313.093C112.321 313.562 111.869 314.133 111.606 314.734L111.605 314.737C111.164 315.761 110.773 316.827 110.403 317.846C109.954 319.076 109.5 320.31 108.963 321.496L108.96 321.501L108.749 321.976C107.843 323.986 106.94 325.963 105.564 327.585C104.292 329.084 102.57 330.216 100.905 331.181L100.903 331.177L100.288 331.524C98.0719 332.771 95.8782 331.348 94.9889 330.752L94.9866 330.75L94.3955 330.343C94.1992 330.204 94.0024 330.061 93.8021 329.916L93.8003 329.915L93.0548 329.383C92.3011 328.855 91.5206 328.354 90.7018 328.023L90.6978 328.022L90.1454 327.813C87.4018 326.831 84.9344 326.778 82.6877 327.756L82.6852 327.758C81.9137 328.098 81.1279 328.477 80.3694 328.894L80.3703 328.893C79.9052 329.147 79.5162 329.175 79.2068 329.082C78.9318 329 78.6409 328.798 78.3774 328.417L78.2669 328.243C77.4349 326.824 77.9257 324.732 79.3072 323.829L79.3101 323.826C79.8174 323.491 80.3397 323.177 80.858 322.885Z" fill="#FF58CD" stroke="black" stroke-width="1.41244"></path>
<path d="M81.4582 230.045L82.0283 229.724L83.1493 229.135C85.7837 227.774 88.5605 226.526 91.6421 225.998C92.0821 225.927 92.5274 225.845 92.9479 225.769L92.9518 225.768C94.0966 225.555 95.2514 225.346 96.4245 225.234L96.4249 225.235C101.655 224.739 106.927 225.732 112.099 228.218C112.245 228.292 112.369 228.378 112.507 228.471L114.903 230.273C115.102 230.425 115.199 230.684 115.151 230.922L115.15 230.926C115.112 231.12 114.996 231.28 114.832 231.374C114.794 231.395 114.744 231.416 114.684 231.433C114.361 231.517 114.048 231.587 113.719 231.659L113.72 231.658C113.172 231.775 112.535 231.903 112.048 232.163L112.049 232.162C111.772 232.308 111.479 232.463 111.188 232.627C110.018 233.285 109.018 233.942 108.134 234.654C107.808 234.912 107.459 235.147 107.11 235.343C105.521 236.238 103.697 236.519 101.466 236.144L101.464 236.144L100.861 236.044C99.426 235.814 97.8161 235.626 96.3235 236.141C96.1287 236.207 95.9504 236.297 95.7771 236.394C95.4034 236.605 95.0307 236.884 94.6886 237.136L94.2555 237.452C93.9654 237.662 93.6857 237.911 93.416 238.154L93.411 238.159C93.1931 238.36 92.9709 238.553 92.7451 238.738C92.5135 238.923 92.2621 239.092 91.9981 239.241C90.1043 240.307 87.7009 240.111 85.5257 238.556L85.0792 238.235L85.076 238.233L84.0497 237.503C83.7045 237.26 83.3558 237.02 83.0068 236.791C81.234 235.623 79.0812 235.596 77.1607 236.677C77.1008 236.711 77.0321 236.75 76.9587 236.794L76.7767 236.915C76.6688 236.982 76.5632 237.058 76.4634 237.133L76.1884 237.347C75.8292 237.624 75.5353 237.861 75.1768 238.062C74.4488 238.472 73.7373 238.595 72.9563 238.452L72.9537 238.451L72.8864 238.435C72.7334 238.39 72.5968 238.286 72.5105 238.144C72.4096 237.96 72.3914 237.761 72.4457 237.593C72.9766 236.022 74.1151 235.15 75.1843 234.352L75.183 234.351L75.472 234.138L75.4775 234.134C77.5524 232.565 79.4063 231.2 81.4582 230.045Z" fill="#FF58CD" stroke="black" stroke-width="1.41244"></path>
<path d="M166.084 295.386C166.407 295.204 166.809 295.324 166.983 295.631C167.057 295.764 167.083 295.917 167.058 296.062L167.056 296.076L167.054 296.091L167.007 296.445L167.006 296.458C166.954 296.922 166.885 297.448 166.814 297.982L166.747 298.429L166.746 298.439C166.657 299.083 166.566 299.719 166.413 300.356C166.254 300.997 166.092 301.646 165.943 302.299C165.496 304.143 165.039 306.025 164.492 307.885L164.251 308.679C163.21 312.029 161.987 315.282 161.026 317.761L161.025 317.764C160.234 319.821 159.428 321.885 158.364 323.817L158.148 324.201C157.119 325.987 155.825 327.618 154.54 329.239L154.538 329.242L153.987 329.942L153.988 329.942C153.355 330.749 152.574 331.361 151.745 332.016L151.742 332.019C151.289 332.379 150.843 332.678 150.369 332.945L150.224 333.027L150.217 333.036C149.017 333.69 147.608 334.176 145.897 334.5L145.894 334.5L145.233 334.619C143.688 334.878 142.122 335.021 140.57 335.165L140.568 335.165C139.866 335.231 139.16 335.298 138.458 335.373C136.278 335.607 134.172 336.314 132.033 337.518C131.243 337.963 130.445 338.476 129.607 339.074L129.606 339.074C128.477 339.881 127.251 340.662 125.963 341.388C125.203 341.816 124.415 342.23 123.605 342.625L123.606 342.624C120.023 344.366 116.754 345.818 113.591 347.048L113.589 347.049C112.416 347.51 111.179 347.664 109.877 347.825L109.874 347.826L108.75 347.974L108.741 347.975L107.431 348.16C106.115 348.334 104.777 348.482 103.331 348.64L103.331 348.64C103.028 348.674 102.774 348.609 102.491 348.536C102.432 348.52 102.337 348.493 102.239 348.476L102.24 348.475C101.992 348.429 101.796 348.247 101.733 348.017L101.731 348.009L101.625 347.637C101.543 347.333 101.67 347.034 101.932 346.886L102.041 346.825C102.514 346.628 102.99 346.413 103.437 346.219L103.47 346.205L103.553 346.158C104.726 345.641 105.89 345.126 107.119 344.756L107.12 344.756C108.097 344.462 109.099 344.273 110.108 344.078L110.109 344.078C111.343 343.843 112.573 343.602 113.726 343.181L113.731 343.179C114.534 342.879 115.354 342.491 116.246 341.989C117.276 341.409 118.267 340.756 119.095 340.186L119.097 340.186C120.056 339.54 120.992 338.792 121.873 338.081L121.871 338.08C122.999 337.178 124.135 336.28 125.355 335.514L125.36 335.511C125.613 335.349 125.87 335.193 126.131 335.046C127.629 334.203 129.28 333.54 130.898 333.124L130.898 333.125C132.908 332.614 134.967 332.198 136.964 331.803L136.967 331.803C138.896 331.412 140.911 331.013 142.89 330.511L142.89 330.512C144.976 329.988 147.108 329.079 149.592 327.68C150.682 327.066 151.74 326.419 152.624 325.87L152.625 325.869C153.102 325.571 153.484 325.07 153.765 324.592C154.056 324.098 154.287 323.547 154.429 323.064L154.429 323.062C154.731 322.034 154.884 320.966 155.041 319.891L155.041 319.89C155.197 318.81 155.353 317.738 155.652 316.689L155.653 316.685C156.755 312.722 157.977 308.367 160.546 304.459L160.799 304.082C162.106 302.178 163.257 300.135 164.356 298.195L164.357 298.192C164.853 297.308 165.34 296.452 165.832 295.626L165.841 295.609C165.88 295.538 165.932 295.482 165.995 295.436L166.084 295.386Z" fill="#FF58CD" stroke="black" stroke-width="1.41244"></path>
<path d="M68.2297 273.186C68.8305 272.848 69.441 272.552 69.918 272.325L69.9185 272.326C71.1651 271.733 72.4604 271.282 73.7549 270.841L73.7597 270.84C74.2834 270.658 74.7699 270.487 75.253 270.309L75.2552 270.309C75.4418 270.24 75.6135 270.239 75.806 270.234L75.8892 270.237L75.9211 270.238L75.9534 270.235C76.2226 270.218 76.4718 270.365 76.5877 270.606C76.689 270.816 76.6715 271.062 76.5424 271.258L76.4807 271.337L75.2569 272.671C74.3893 273.599 73.5538 274.499 72.7915 275.465C70.0904 278.866 67.1498 283.146 66.4026 288.431L66.4022 288.433C66.0686 290.818 65.9334 293.071 66.0057 295.123C66.0367 296.007 66.1499 296.883 66.2827 297.764L66.4197 298.646C66.579 299.665 66.74 300.66 66.8164 301.659L66.8169 301.66C66.9257 303.079 66.8942 304.499 66.8752 305.918C66.8628 306.48 66.8541 307.031 66.8495 307.59L66.8492 307.593C66.8474 308.341 66.5508 308.706 66.2796 308.9L66.1375 308.98C65.9225 309.101 65.6546 309.185 65.2962 309.212L65.2875 309.212C63.4951 309.369 61.9773 308.787 60.9681 307.62C59.9471 306.439 59.5169 304.701 59.87 302.76L59.9514 302.369C60.281 300.961 60.6915 299.697 61.1785 298.607L61.1799 298.608L61.1806 298.605C62.2455 296.194 62.0935 293.639 60.795 290.87C59.4338 287.948 59.9813 285.25 60.6574 283.129C61.583 280.223 63.2517 277.561 65.7928 274.978L65.7941 274.979C66.4069 274.361 67.1977 273.767 68.2297 273.186Z" fill="#FF58CD" stroke="black" stroke-width="1.41244"></path>
<path d="M88.5074 216.297C88.5754 216.259 88.6553 216.231 88.7612 216.213C89.0017 216.182 89.2467 216.159 89.4963 216.143L89.5064 216.143L89.5155 216.141C89.9694 216.1 90.4971 216.058 90.9471 215.929L90.9518 215.927C93.4455 215.193 95.4584 214.546 97.3046 213.89C98.6046 213.428 99.9164 212.897 101.169 212.397L101.171 212.395C101.948 212.081 102.708 211.776 103.47 211.48L103.472 211.479C104.481 211.083 105.501 210.711 106.526 210.331L106.526 210.331L107.573 209.947L107.576 209.947C109.14 209.364 110.614 209.641 112.109 209.932L112.11 209.932C112.639 210.035 113.198 210.149 113.749 210.204L113.75 210.204C114.075 210.238 114.314 210.488 114.336 210.804L114.335 210.807C114.354 211.063 114.221 211.31 114.004 211.433C113.984 211.444 113.96 211.456 113.931 211.468L113.825 211.503C113.501 211.587 113.211 211.715 112.943 211.866C112.052 212.367 111.382 213.219 110.777 213.976C110.466 214.366 110.158 214.745 109.834 215.103C108.253 216.812 106.494 218.209 104.628 219.26L104.612 219.269C103.619 219.828 102.559 220.306 101.482 220.684L101.481 220.684C97.8772 221.958 94.3824 221.513 91.0306 219.339L91.0298 219.34C90.7395 219.151 90.4414 218.965 90.1423 218.783L89.2511 218.249L88.4157 217.747C88.1655 217.591 88.049 217.305 88.1189 217.02L88.1204 217.015L88.1886 216.722L88.1899 216.723C88.2388 216.536 88.3563 216.382 88.5074 216.297Z" fill="#FF58CD" stroke="black" stroke-width="1.41244"></path>
<path d="M109.329 322.99C109.68 322.792 110.087 322.609 110.482 322.463C114.097 321.162 117.444 321.004 120.763 321.932C122.98 322.558 125.353 322.328 127.28 322.049L127.28 322.049C127.708 321.989 128.106 321.947 128.537 322.009L128.542 322.01C128.801 322.046 129.022 322.252 129.077 322.514L129.08 322.524C129.138 322.784 129.022 323.071 128.797 323.217L128.795 323.218C127.271 324.219 125.884 325.059 124.558 325.806C117.293 329.895 110.848 331.363 104.234 330.493C103.965 330.455 103.739 330.249 103.677 329.99C103.616 329.738 103.723 329.45 103.947 329.293C105.654 328.126 106.577 326.436 107.468 324.844L107.473 324.834L107.624 324.554C108.018 323.857 108.736 323.324 109.329 322.99Z" fill="#FF58CD" stroke="black" stroke-width="1.41244"></path>
<path d="M81.8035 328.156L81.8366 328.137L81.863 328.13L81.8994 328.116C82.1615 328.011 82.4123 327.901 82.652 327.788L82.6525 327.789C83.2812 327.498 83.8526 327.242 84.4756 327.171L84.4761 327.172C87.694 326.813 90.223 327.357 92.2827 328.758C93.1264 329.333 93.9325 329.961 94.8111 330.643L94.8116 330.643C95.2562 330.993 95.6599 331.304 96.0928 331.631L96.0933 331.632C96.2971 331.785 96.393 332.048 96.3262 332.322C96.2833 332.47 96.1977 332.592 96.0874 332.676L95.9947 332.729C95.9275 332.766 95.8568 332.791 95.7597 332.805L95.7605 332.804C90.6219 333.506 86.046 332.35 81.7362 329.269L81.7358 329.268L81.6656 329.211C81.5142 329.069 81.4419 328.868 81.4701 328.659L81.4707 328.654C81.4975 328.444 81.624 328.257 81.8035 328.156Z" fill="#FF58CD" stroke="black" stroke-width="1.41244"></path>
<path d="M73.1894 239.22C73.3928 239.106 73.5924 239.019 73.7954 238.935L73.8061 238.93L74.045 238.827L74.0698 238.815C74.2457 238.731 74.4511 238.732 74.6266 238.819C74.8104 238.909 74.9408 239.071 74.9904 239.262C75.1277 239.826 75.2402 240.381 75.3616 240.948C75.6153 242.156 75.8567 243.333 76.2618 244.437C77.5991 248.09 79.327 250.701 81.6988 252.521L82.1814 252.874L82.8245 253.324L82.8263 253.325C84.8867 254.756 86.9791 256.223 88.8976 257.871C90.2765 259.059 91.043 260.542 91.8084 262.248L92.138 262.993C92.426 263.65 92.726 264.332 93.064 265.008L93.067 265.015C93.1653 265.207 93.1606 265.44 93.0401 265.64C92.98 265.739 92.8956 265.821 92.7925 265.879L92.7942 265.886C92.7315 265.918 92.6679 265.939 92.6009 265.949L92.5247 265.955C92.303 265.957 92.1085 265.97 91.9875 265.976L91.9792 265.977L91.5406 265.994C91.4109 265.995 91.2915 265.989 91.1641 265.974L91.1632 265.975C88.6681 265.653 86.2702 265.988 83.8751 266.982C82.4206 267.585 81.1892 268.13 80.0204 268.788C79.3477 269.167 78.7452 269.559 78.178 269.975L78.1654 269.984L78.1523 269.995C78.1205 270.021 78.0781 270.046 77.9766 270.103C77.4532 270.398 76.8495 270.437 76.1585 270.459C75.8208 270.468 75.3428 270.484 75.009 270.583L74.9986 270.586L74.9892 270.589L73.5962 271.053C72.1592 271.544 70.6081 272.121 69.1294 272.828L69.1273 272.828C66.3801 274.15 63.3356 275.091 60.0638 273.168L59.7464 272.972C57.729 271.676 56.6114 269.893 56.3793 267.622L56.3801 267.621C56.0855 264.767 56.4404 261.883 57.5298 258.537L57.5306 258.537C58.8661 254.428 60.956 250.672 63.7592 247.35L64.3289 246.692C66.8415 243.865 69.5927 241.494 72.5142 239.635L73.1009 239.27L73.1894 239.22Z" fill="#FF58CD" stroke="black" stroke-width="1.41244"></path>
<path d="M77.3707 235.501C77.7651 235.279 78.1687 235.114 78.5613 235.02L78.7296 234.985L78.7357 234.984C80.3139 234.708 82.7826 234.518 85.13 236.233L85.3572 236.405L85.6894 236.661C86.3701 237.169 87.147 237.669 88.0478 238.176L88.5085 238.431L88.5104 238.432C89.1125 238.76 89.6478 238.904 90.1467 238.906C90.6436 238.909 91.1545 238.771 91.7102 238.458C92.1203 238.228 92.5508 237.896 92.9966 237.463L93.2464 237.226C93.8371 236.683 94.4682 236.217 95.121 235.85C96.9837 234.801 99.018 234.502 101.275 234.893L101.729 234.98L101.732 234.981C103.823 235.429 105.504 235.22 106.935 234.414C107.482 234.107 108.034 233.684 108.557 233.17C109.196 232.538 109.882 232.005 110.607 231.597C112.828 230.346 115.297 230.284 117.707 231.357L117.706 231.357C117.988 231.481 118.247 231.628 118.474 231.754L118.832 231.953L118.832 231.953C119.435 232.283 119.839 232.892 119.904 233.584C119.969 234.292 119.657 234.96 119.128 235.383C118.957 235.52 118.89 235.566 118.791 235.651L118.783 235.657L118.776 235.662C118.525 235.867 118.265 236.07 117.967 236.262C117.277 236.708 116.633 237.806 116.365 239.358L116.317 239.674C116.035 241.78 116.56 243.712 117.6 244.871C117.959 245.271 118.315 245.671 118.67 246.069L119.738 247.263L119.741 247.266C121.12 248.821 122.51 250.382 123.913 251.893L124.237 252.246C127.521 255.902 129.04 259.592 128.914 263.768C128.893 264.486 128.488 265.148 127.869 265.497L127.723 265.579L127.684 265.581L127.66 265.595L127.621 265.611C126.872 265.923 126.017 265.762 125.43 265.219L125.43 265.218C125.118 264.928 124.812 264.628 124.508 264.325L124.507 264.324C123.868 263.69 123.329 263.156 122.752 262.757L122.751 262.756C121.297 261.754 119.761 260.761 118.14 260.068L118.138 260.069L118.137 260.068C116.202 259.235 114.027 259.06 111.659 259.595L111.658 259.595C110.237 259.914 108.882 260.432 107.641 261.131C106.769 261.622 105.922 262.219 105.112 262.91L104.768 263.213C103.219 264.607 101.823 266.383 100.515 268.647L100.514 268.646C100.306 269.016 100.045 269.281 99.9048 269.428L99.7846 269.56L99.7832 269.56C99.6325 269.734 99.4544 269.881 99.2575 269.992C98.6556 270.331 97.9265 270.35 97.3046 270.027L96.9149 269.82C94.9616 268.763 92.9695 267.288 91.9743 264.384L91.7271 263.706C90.4291 260.371 88.2674 257.869 85.2881 256.222C80.5408 253.606 77.2829 249.782 75.636 244.87L75.6364 244.869C75.1411 243.387 75.0097 241.876 74.8791 240.509L74.8784 240.504C74.8425 240.097 74.8018 239.683 74.7583 239.281L74.7592 239.281C74.6222 238.092 75.3798 237.126 75.9873 236.542C76.6259 235.927 77.2985 235.542 77.3707 235.501Z" fill="#FF58CD" stroke="black" stroke-width="1.41244"></path>
<mask id="path-45-inside-1_6_3" fill="white">
<path d="M152.291 327.015C152.072 327.138 151.85 327.253 151.606 327.349C150.394 327.878 149.173 328.483 147.992 329.066C146.298 329.907 144.545 330.77 142.723 331.457C140.528 332.283 138.233 332.712 135.459 333.093C132.525 333.502 129.445 334.014 126.793 335.507C126.559 335.639 126.318 335.775 126.097 335.93C124.734 336.811 123.304 337.883 121.585 339.282C120.102 340.497 118.587 341.546 117.074 342.398C114.329 343.944 111.543 344.906 108.575 345.345C106.307 345.677 104.282 346.694 102.777 347.542C102.472 347.713 102.168 347.884 101.869 348.063L101.642 348.191C98.8583 349.758 95.7596 349.983 92.422 348.853C89.7811 347.957 87.2474 346.96 85.4406 344.608C85.184 344.28 84.924 343.965 84.6518 343.645C83.7659 342.583 82.8889 341.536 82.353 340.256C81.1807 337.445 81.8464 334.687 84.1813 332.704C84.3543 332.556 84.5399 332.338 84.7436 332.08C84.8722 331.925 85.0009 331.77 85.1373 331.611C85.2357 331.494 85.3595 331.404 85.4921 331.329C85.8352 331.136 86.254 331.096 86.6295 331.233C89.1714 332.154 91.8037 332.469 94.4543 332.179C95.8373 332.026 97.2555 331.772 98.6136 331.521L99.9084 331.285C100.04 331.262 100.13 331.222 100.153 331.209C100.433 330.959 100.759 330.734 101.102 330.541C102.958 329.496 104.93 329.751 106.668 329.974C108.963 330.274 111.364 330.032 114.025 329.231C115.739 328.718 117.471 328.072 119.139 327.441C119.756 327.206 120.371 326.983 120.993 326.756C122.067 326.367 123.11 325.883 124.178 325.281C125.87 324.328 127.57 323.115 129.54 321.451L129.782 321.242C131.313 319.949 132.898 318.604 134.335 317.199C135.731 315.828 136.63 314.069 137.55 311.835C137.736 311.381 137.934 310.931 138.147 310.452L138.45 309.767C138.565 309.497 138.77 309.279 139.028 309.134C139.152 309.064 139.286 309.009 139.425 308.982C139.857 308.893 140.308 309.019 140.632 309.319C140.834 309.514 141.031 309.7 141.224 309.879C141.586 310.23 141.923 310.554 142.27 310.842C144.129 312.393 145.873 312.736 147.938 311.933C148.712 311.631 149.526 311.306 150.251 310.898C150.976 310.489 151.573 309.999 151.995 309.453C152.387 308.945 152.674 308.27 152.98 307.553C153.155 307.136 153.335 306.706 153.547 306.299L153.583 306.217C154.462 304.459 155.375 302.651 156.318 300.877C156.552 300.437 156.814 300.043 157.064 299.666C157.35 299.227 157.627 298.825 157.807 298.415C158.017 297.948 158.226 297.481 158.44 297.022C159.756 294.124 161.008 291.385 161.214 288.321C161.302 287.019 161.74 285.755 162.064 284.925C162.918 282.739 162.708 280.413 162.475 277.956L162.451 277.641C161.955 272.199 159.996 267.006 156.456 261.758C154.796 259.304 152.693 256.955 150.011 254.582C149.341 253.994 148.697 253.288 148.038 252.427C147.099 251.199 145.806 250.325 144.442 249.398L144.21 249.241C142.564 248.124 140.915 246.783 139.013 245.029C138.262 244.333 137.802 243.462 137.364 242.629L137.119 242.193C135.465 239.128 133.027 236.66 129.884 234.835C128.131 233.819 126.124 233.357 124.087 233.497C123.552 233.532 123.015 233.526 122.541 233.505C121.771 233.487 121.048 233.462 120.496 233.65C118.008 234.466 116.524 232.98 115.638 232.082C112.548 228.984 108.743 227.059 104.321 226.375L103.497 226.244C102.152 226.025 100.762 225.801 99.4358 225.798C97.4842 225.798 95.4527 225.966 93.3891 226.297C90.0332 226.83 86.6484 228.079 82.7262 230.216L82.4766 230.356C80.8311 231.283 79.2394 232.487 77.7057 233.649C77.3041 233.957 76.8981 234.258 76.4965 234.566C75.3946 235.381 74.3926 236.356 73.6407 237.119C73.1939 237.566 73.2709 237.666 73.4582 237.889C73.7007 238.174 73.8115 238.553 73.7658 238.928C73.7202 239.303 73.5205 239.641 73.2149 239.865C70.0051 242.227 66.6792 244.675 64.2069 247.854C63.2388 249.108 62.3541 250.51 61.5073 251.87C60.9724 252.726 60.4229 253.611 59.8436 254.461C59.4324 255.062 58.8592 255.467 58.4537 255.695C58.2899 255.787 58.1218 255.872 57.9526 255.936C57.0533 256.309 56.151 256.622 55.1898 256.958C55.1898 256.958 54.3465 257.248 53.9804 257.382C53.5631 257.535 53.0951 257.47 52.7337 257.211C52.3723 256.952 52.1596 256.538 52.1613 256.085C52.165 255.672 52.1643 255.252 52.1593 254.823C52.1515 253.769 52.1417 252.676 52.2187 251.554C52.3499 249.416 52.4845 247.265 52.8497 245.159C53.0549 243.955 53.5214 242.85 53.9622 241.79C54.0547 241.553 54.1594 241.32 54.2519 241.083C54.4526 240.6 54.6366 240.106 54.8251 239.62C55.4255 238.06 56.043 236.438 56.9184 234.929C57.9161 233.216 59.242 231.741 60.5221 230.311L60.7725 230.026C62.3455 228.278 63.8571 226.749 65.3844 225.375C66.5701 224.307 67.9396 223.31 69.453 222.386C69.8186 222.159 70.651 221.649 70.651 221.649C71.4947 221.123 72.3774 220.575 73.2742 220.07C75.1303 219.024 76.732 218.348 78.3075 217.954C78.7033 217.855 79.0948 217.747 79.4906 217.648C82.0937 216.962 84.7758 216.253 87.7154 216.786C88.3785 216.905 88.9943 217.124 89.5219 217.422C90.272 217.842 91.0273 218.29 91.7418 218.72C92.266 219.03 92.7902 219.341 93.3145 219.652C93.5169 219.774 93.7251 219.852 93.9157 219.899C97.6306 220.714 100.435 220.46 103.02 219.086C103.215 218.976 103.418 218.862 103.613 218.752C106.616 217.062 108.935 215.016 110.711 212.496C111.074 211.973 111.546 211.553 112.092 211.246C112.934 210.772 113.958 210.565 115.214 210.607C117.92 210.706 120.305 211.767 122.709 213.957C125.385 216.394 127.18 218.506 128.548 220.807C129.299 222.068 129.924 223.524 130.521 225.386C131.013 226.917 131.39 228.481 131.757 229.99L132.064 231.265C132.364 232.473 133.193 233.434 134.593 234.206C135.318 234.599 136.161 234.874 137.041 235.16L137.131 235.191C137.408 235.282 137.684 235.372 137.954 235.467C138.793 235.755 139.669 236.032 140.507 236.299C143.634 237.292 146.78 238.283 149.613 240.139L150.184 240.516C153.236 242.505 156.386 244.562 158.936 247.43C162.038 250.932 163.755 254.711 164.177 258.982C164.361 260.84 164.846 262.724 165.414 264.808C166.132 267.433 166.125 270.047 166.121 272.575L166.12 273.541C166.125 277.38 166.498 281.217 167.219 284.94C167.854 288.239 167.634 291.588 166.554 294.887C165.551 297.958 164.002 300.587 161.986 303.612C159.702 307.034 158.079 310.681 157.175 314.456C156.822 315.928 156.545 317.46 156.278 318.956C156.149 319.676 156.019 320.376 155.889 321.075C155.452 323.345 154.712 325.641 152.294 327.003L152.291 327.015Z"></path>
</mask>
<path d="M152.291 327.015C152.072 327.138 151.85 327.253 151.606 327.349C150.394 327.878 149.173 328.483 147.992 329.066C146.298 329.907 144.545 330.77 142.723 331.457C140.528 332.283 138.233 332.712 135.459 333.093C132.525 333.502 129.445 334.014 126.793 335.507C126.559 335.639 126.318 335.775 126.097 335.93C124.734 336.811 123.304 337.883 121.585 339.282C120.102 340.497 118.587 341.546 117.074 342.398C114.329 343.944 111.543 344.906 108.575 345.345C106.307 345.677 104.282 346.694 102.777 347.542C102.472 347.713 102.168 347.884 101.869 348.063L101.642 348.191C98.8583 349.758 95.7596 349.983 92.422 348.853C89.7811 347.957 87.2474 346.96 85.4406 344.608C85.184 344.28 84.924 343.965 84.6518 343.645C83.7659 342.583 82.8889 341.536 82.353 340.256C81.1807 337.445 81.8464 334.687 84.1813 332.704C84.3543 332.556 84.5399 332.338 84.7436 332.08C84.8722 331.925 85.0009 331.77 85.1373 331.611C85.2357 331.494 85.3595 331.404 85.4921 331.329C85.8352 331.136 86.254 331.096 86.6295 331.233C89.1714 332.154 91.8037 332.469 94.4543 332.179C95.8373 332.026 97.2555 331.772 98.6136 331.521L99.9084 331.285C100.04 331.262 100.13 331.222 100.153 331.209C100.433 330.959 100.759 330.734 101.102 330.541C102.958 329.496 104.93 329.751 106.668 329.974C108.963 330.274 111.364 330.032 114.025 329.231C115.739 328.718 117.471 328.072 119.139 327.441C119.756 327.206 120.371 326.983 120.993 326.756C122.067 326.367 123.11 325.883 124.178 325.281C125.87 324.328 127.57 323.115 129.54 321.451L129.782 321.242C131.313 319.949 132.898 318.604 134.335 317.199C135.731 315.828 136.63 314.069 137.55 311.835C137.736 311.381 137.934 310.931 138.147 310.452L138.45 309.767C138.565 309.497 138.77 309.279 139.028 309.134C139.152 309.064 139.286 309.009 139.425 308.982C139.857 308.893 140.308 309.019 140.632 309.319C140.834 309.514 141.031 309.7 141.224 309.879C141.586 310.23 141.923 310.554 142.27 310.842C144.129 312.393 145.873 312.736 147.938 311.933C148.712 311.631 149.526 311.306 150.251 310.898C150.976 310.489 151.573 309.999 151.995 309.453C152.387 308.945 152.674 308.27 152.98 307.553C153.155 307.136 153.335 306.706 153.547 306.299L153.583 306.217C154.462 304.459 155.375 302.651 156.318 300.877C156.552 300.437 156.814 300.043 157.064 299.666C157.35 299.227 157.627 298.825 157.807 298.415C158.017 297.948 158.226 297.481 158.44 297.022C159.756 294.124 161.008 291.385 161.214 288.321C161.302 287.019 161.74 285.755 162.064 284.925C162.918 282.739 162.708 280.413 162.475 277.956L162.451 277.641C161.955 272.199 159.996 267.006 156.456 261.758C154.796 259.304 152.693 256.955 150.011 254.582C149.341 253.994 148.697 253.288 148.038 252.427C147.099 251.199 145.806 250.325 144.442 249.398L144.21 249.241C142.564 248.124 140.915 246.783 139.013 245.029C138.262 244.333 137.802 243.462 137.364 242.629L137.119 242.193C135.465 239.128 133.027 236.66 129.884 234.835C128.131 233.819 126.124 233.357 124.087 233.497C123.552 233.532 123.015 233.526 122.541 233.505C121.771 233.487 121.048 233.462 120.496 233.65C118.008 234.466 116.524 232.98 115.638 232.082C112.548 228.984 108.743 227.059 104.321 226.375L103.497 226.244C102.152 226.025 100.762 225.801 99.4358 225.798C97.4842 225.798 95.4527 225.966 93.3891 226.297C90.0332 226.83 86.6484 228.079 82.7262 230.216L82.4766 230.356C80.8311 231.283 79.2394 232.487 77.7057 233.649C77.3041 233.957 76.8981 234.258 76.4965 234.566C75.3946 235.381 74.3926 236.356 73.6407 237.119C73.1939 237.566 73.2709 237.666 73.4582 237.889C73.7007 238.174 73.8115 238.553 73.7658 238.928C73.7202 239.303 73.5205 239.641 73.2149 239.865C70.0051 242.227 66.6792 244.675 64.2069 247.854C63.2388 249.108 62.3541 250.51 61.5073 251.87C60.9724 252.726 60.4229 253.611 59.8436 254.461C59.4324 255.062 58.8592 255.467 58.4537 255.695C58.2899 255.787 58.1218 255.872 57.9526 255.936C57.0533 256.309 56.151 256.622 55.1898 256.958C55.1898 256.958 54.3465 257.248 53.9804 257.382C53.5631 257.535 53.0951 257.47 52.7337 257.211C52.3723 256.952 52.1596 256.538 52.1613 256.085C52.165 255.672 52.1643 255.252 52.1593 254.823C52.1515 253.769 52.1417 252.676 52.2187 251.554C52.3499 249.416 52.4845 247.265 52.8497 245.159C53.0549 243.955 53.5214 242.85 53.9622 241.79C54.0547 241.553 54.1594 241.32 54.2519 241.083C54.4526 240.6 54.6366 240.106 54.8251 239.62C55.4255 238.06 56.043 236.438 56.9184 234.929C57.9161 233.216 59.242 231.741 60.5221 230.311L60.7725 230.026C62.3455 228.278 63.8571 226.749 65.3844 225.375C66.5701 224.307 67.9396 223.31 69.453 222.386C69.8186 222.159 70.651 221.649 70.651 221.649C71.4947 221.123 72.3774 220.575 73.2742 220.07C75.1303 219.024 76.732 218.348 78.3075 217.954C78.7033 217.855 79.0948 217.747 79.4906 217.648C82.0937 216.962 84.7758 216.253 87.7154 216.786C88.3785 216.905 88.9943 217.124 89.5219 217.422C90.272 217.842 91.0273 218.29 91.7418 218.72C92.266 219.03 92.7902 219.341 93.3145 219.652C93.5169 219.774 93.7251 219.852 93.9157 219.899C97.6306 220.714 100.435 220.46 103.02 219.086C103.215 218.976 103.418 218.862 103.613 218.752C106.616 217.062 108.935 215.016 110.711 212.496C111.074 211.973 111.546 211.553 112.092 211.246C112.934 210.772 113.958 210.565 115.214 210.607C117.92 210.706 120.305 211.767 122.709 213.957C125.385 216.394 127.18 218.506 128.548 220.807C129.299 222.068 129.924 223.524 130.521 225.386C131.013 226.917 131.39 228.481 131.757 229.99L132.064 231.265C132.364 232.473 133.193 233.434 134.593 234.206C135.318 234.599 136.161 234.874 137.041 235.16L137.131 235.191C137.408 235.282 137.684 235.372 137.954 235.467C138.793 235.755 139.669 236.032 140.507 236.299C143.634 237.292 146.78 238.283 149.613 240.139L150.184 240.516C153.236 242.505 156.386 244.562 158.936 247.43C162.038 250.932 163.755 254.711 164.177 258.982C164.361 260.84 164.846 262.724 165.414 264.808C166.132 267.433 166.125 270.047 166.121 272.575L166.12 273.541C166.125 277.38 166.498 281.217 167.219 284.94C167.854 288.239 167.634 291.588 166.554 294.887C165.551 297.958 164.002 300.587 161.986 303.612C159.702 307.034 158.079 310.681 157.175 314.456C156.822 315.928 156.545 317.46 156.278 318.956C156.149 319.676 156.019 320.376 155.889 321.075C155.452 323.345 154.712 325.641 152.294 327.003L152.291 327.015Z" fill="#FF58CD" stroke="black" stroke-width="2.82487" mask="url(#path-45-inside-1_6_3)"></path>
<path d="M106.037 259.376C109.148 257.604 112.779 256.884 116.617 257.589C124.636 259.061 129.599 266.507 131.476 273.944C134.284 285.079 133.576 296.334 126.304 305.565C121.804 311.272 113.6 313.447 107.087 309.925C100.121 306.164 95.8973 298.261 94.5473 290.702C93.5297 285.009 93.936 279.018 95.7857 273.529C96.7585 270.66 98.1009 267.974 99.7734 265.399C101.427 262.845 103.557 260.772 106.028 259.36L106.037 259.376Z" fill="#FFD200" stroke="black" stroke-width="1.41244" stroke-miterlimit="10"></path>
<path d="M115.502 280.053C114.329 277.97 113.702 269.87 117.767 270.139C121.634 270.386 121.234 281.057 118.243 282.002C117.162 282.343 116.507 281.674 115.959 280.864C115.799 280.635 115.682 280.372 115.502 280.053Z" fill="black"></path>
<path d="M105.366 282.7C104.196 280.677 102.868 272.828 106.568 272.522C109.601 272.272 109.958 276.683 109.989 278.781C110.008 280.055 110.023 281.577 109.61 282.795C109.079 284.388 107.271 284.934 106.036 283.616C105.782 283.348 105.554 283.035 105.366 282.7Z" fill="black"></path>
<path d="M104.123 292.222C104.868 296.774 108.654 300.671 113.381 300.875C116.237 301.003 118.86 299.588 120.792 297.565C123.319 294.92 124.99 290.117 124.489 286.455" stroke="black" stroke-width="1.41244" stroke-miterlimit="10"></path>
<path d="M239.992 171.383V172.48L274.024 247.131L274.02 247.134L274.465 247.131V310.807H222.026V342.64H187.846V342.044L137.347 287.201V285.774H136.25V171.943L239.992 171.383Z" fill="#FF0011" stroke="black" stroke-width="1.41244" stroke-miterlimit="10"></path>
<path d="M238.652 203.163L273.963 273.784" stroke="black" stroke-width="1.41244"></path>
<path d="M177.354 286.143V247.893H237.033V218.63H176.219V206.262H240.417V171.383L136.25 171.944V286.143H177.354Z" fill="#FFD200" stroke="black" stroke-width="1.41244" stroke-miterlimit="10"></path>
<path d="M175.092 286.143L220.996 342.641" stroke="black" stroke-width="1.41244"></path>
<path d="M236.886 249.067L273.962 310.861" stroke="black" stroke-width="1.41244"></path>
<path d="M178.623 249.067L222.762 310.861" stroke="black" stroke-width="1.41244"></path>
<path d="M287.967 341.991L256.307 285.353L257.399 173.148L327.25 188.474L358.901 208.725L373.109 276.857C374.17 280.217 375.254 284.666 375.863 290.067L376.364 292.468L376.122 292.784C376.274 294.75 376.36 296.828 376.36 299.01C376.36 299.01 376.36 313.85 369.072 325.06C369.072 325.06 363.149 337.614 332.933 341.991C332.933 341.991 310.11 343.452 287.967 341.991Z" fill="#FF0011" stroke="black" stroke-width="1.41244"></path>
<path d="M288.098 171.388C277.429 171.445 266.668 172.035 256.441 172.234L256.307 285.359C282.844 287.123 310.196 285.359 310.196 285.359C346.407 280.074 353.506 264.917 353.506 264.917C362.24 251.384 362.24 233.467 362.24 233.467C362.24 211.107 354.794 197.866 354.794 197.866C345.861 183.521 339.941 178.104 320.744 174.027C310.477 171.85 299.354 171.324 288.098 171.388ZM319.3 206.376L319.968 220.887C319.968 220.887 320.998 242.891 318.15 255.036C315.664 265.622 296.426 264.917 296.426 264.917L294.902 194.149C319.273 192.47 319.006 204.905 319.287 209.679L319.3 206.376Z" fill="#FFD200" stroke="black" stroke-width="1.41244" stroke-miterlimit="10"></path>
<path d="M339.287 277.315L362.239 330.282" stroke="black" stroke-width="1.41244"></path>
<path d="M346.35 273.784L367.536 326.751" stroke="black" stroke-width="1.41244"></path>
<path d="M356.943 257.894L374.598 310.861" stroke="black" stroke-width="1.41244"></path>
</svg>